RobotoSerifDisplay-RegularConditalic 00m.ufo
<glyph name="dollar" format="2">
  <advance width="393"/>
  <unicode hex="0024"/>
  <outline>
    <contour>
      <point x="182" y="12" type="curve" smooth="yes"/>
      <point x="286" y="12"/>
      <point x="361" y="86"/>
      <point x="367" y="211" type="curve" smooth="yes"/>
      <point x="373" y="318"/>
      <point x="315" y="362"/>
      <point x="250" y="406" type="curve" smooth="yes"/>
      <point x="181" y="456"/>
      <point x="154" y="473"/>
      <point x="157" y="543" type="curve" smooth="yes"/>
      <point x="161" y="613"/>
      <point x="201" y="661"/>
      <point x="274" y="661" type="curve" smooth="yes"/>
      <point x="322" y="661"/>
      <point x="357" y="645"/>
      <point x="381" y="591" type="curve"/>
      <point x="377" y="615"/>
      <point x="370" y="636"/>
      <point x="359" y="654" type="curve"/>
      <point x="337" y="527" type="line"/>
      <point x="402" y="527" type="line"/>
      <point x="420" y="629" type="line"/>
      <point x="395" y="667"/>
      <point x="341" y="698"/>
      <point x="279" y="698" type="curve" smooth="yes"/>
      <point x="177" y="698"/>
      <point x="105" y="627"/>
      <point x="99" y="521" type="curve" smooth="yes"/>
      <point x="94" y="413"/>
      <point x="148" y="375"/>
      <point x="210" y="332" type="curve" smooth="yes"/>
      <point x="273" y="289"/>
      <point x="305" y="257"/>
      <point x="302" y="186" type="curve" smooth="yes"/>
      <point x="298" y="109"/>
      <point x="256" y="49"/>
      <point x="187" y="49" type="curve" smooth="yes"/>
      <point x="128" y="49"/>
      <point x="84" y="72"/>
      <point x="62" y="116" type="curve"/>
      <point x="62" y="103"/>
      <point x="65" y="93"/>
      <point x="70" y="83" type="curve"/>
      <point x="95" y="213" type="line"/>
      <point x="25" y="213" type="line"/>
      <point x="5" y="107" type="line"/>
      <point x="25" y="71"/>
      <point x="96" y="12"/>
    </contour>
    <contour>
      <point x="125" y="-120" type="line"/>
      <point x="153" y="-120" type="line"/>
      <point x="178" y="22" type="line"/>
      <point x="181" y="35" type="line"/>
      <point x="292" y="672" type="line"/>
      <point x="294" y="683" type="line"/>
      <point x="313" y="790" type="line"/>
      <point x="285" y="790" type="line"/>
      <point x="266" y="686" type="line"/>
      <point x="263" y="670" type="line"/>
      <point x="152" y="36" type="line"/>
      <point x="150" y="26" type="line"/>
    </contour>
  </outline>
</glyph>
<glyph name="ampersand" format="2">
  <advance width="510"/>
  <unicode hex="0026"/>
  <outline>
    <contour>
      <point x="460" y="0" type="line"/>
      <point x="466" y="31" type="line"/>
      <point x="458" y="31" type="line" smooth="yes"/>
      <point x="429" y="31"/>
      <point x="408" y="65"/>
      <point x="387" y="102" type="curve" smooth="yes"/>
      <point x="302" y="272"/>
      <point x="246" y="418"/>
      <point x="252" y="540" type="curve" smooth="yes"/>
      <point x="258" y="640"/>
      <point x="290" y="689"/>
      <point x="326" y="689" type="curve" smooth="yes"/>
      <point x="356" y="689"/>
      <point x="366" y="652"/>
      <point x="364" y="608" type="curve" smooth="yes"/>
      <point x="359" y="524"/>
      <point x="333" y="474"/>
      <point x="245" y="427" type="curve"/>
      <point x="256" y="408" type="line"/>
      <point x="360" y="456"/>
      <point x="420" y="522"/>
      <point x="424" y="600" type="curve" smooth="yes"/>
      <point x="428" y="670"/>
      <point x="395" y="718"/>
      <point x="329" y="718" type="curve" smooth="yes"/>
      <point x="245" y="718"/>
      <point x="188" y="646"/>
      <point x="177" y="533" type="curve" smooth="yes"/>
      <point x="162" y="369"/>
      <point x="257" y="183"/>
      <point x="349" y="0" type="curve"/>
    </contour>
    <contour>
      <point x="191" y="24" type="curve" smooth="yes"/>
      <point x="130" y="24"/>
      <point x="98" y="94"/>
      <point x="103" y="184" type="curve" smooth="yes"/>
      <point x="109" y="307"/>
      <point x="143" y="369"/>
      <point x="225" y="406" type="curve"/>
      <point x="214" y="423" type="line"/>
      <point x="101" y="383"/>
      <point x="28" y="306"/>
      <point x="21" y="177" type="curve" smooth="yes"/>
      <point x="16" y="74"/>
      <point x="71" y="-10"/>
      <point x="174" y="-10" type="curve" smooth="yes"/>
      <point x="321" y="-10"/>
      <point x="417" y="232"/>
      <point x="452" y="328" type="curve" smooth="yes"/>
      <point x="463" y="361"/>
      <point x="482" y="366"/>
      <point x="513" y="366" type="curve" smooth="yes"/>
      <point x="517" y="366" type="line"/>
      <point x="524" y="395" type="line"/>
      <point x="378" y="395" type="line"/>
      <point x="373" y="366" type="line"/>
      <point x="376" y="366" type="line" smooth="yes"/>
      <point x="397" y="366"/>
      <point x="427" y="363"/>
      <point x="427" y="356" type="curve"/>
      <point x="400" y="220"/>
      <point x="301" y="24"/>
    </contour>
  </outline>
</glyph>
<glyph name="plus" format="2">
  <advance width="393"/>
  <unicode hex="002B"/>
  <outline>
    <contour>
      <point x="239" y="556" type="line"/>
      <point x="164" y="126" type="line"/>
      <point x="189" y="126" type="line"/>
      <point x="265" y="556" type="line"/>
    </contour>
    <contour>
      <point x="366" y="357" type="line"/>
      <point x="68" y="357" type="line"/>
      <point x="63" y="325" type="line"/>
      <point x="360" y="325" type="line"/>
    </contour>
  </outline>
</glyph>
<glyph name="hyphen" format="2">
  <advance width="264"/>
  <unicode hex="002D"/>
  <outline>
    <contour>
      <point x="58" y="334" type="line"/>
      <point x="45" y="267" type="line"/>
      <point x="230" y="267" type="line"/>
      <point x="244" y="334" type="line"/>
    </contour>
  </outline>
</glyph>
<glyph name="zero" format="2">
  <advance width="393"/>
  <unicode hex="0030"/>
  <outline>
    <contour>
      <point x="170" y="-10" type="curve" smooth="yes"/>
      <point x="298" y="-10"/>
      <point x="382" y="176"/>
      <point x="392" y="358" type="curve" smooth="yes"/>
      <point x="400" y="518"/>
      <point x="344" y="619"/>
      <point x="255" y="619" type="curve" smooth="yes"/>
      <point x="126" y="619"/>
      <point x="43" y="432"/>
      <point x="33" y="250" type="curve" smooth="yes"/>
      <point x="25" y="90"/>
      <point x="81" y="-10"/>
    </contour>
    <contour>
      <point x="170" y="21" type="curve" smooth="yes"/>
      <point x="122" y="21"/>
      <point x="104" y="96"/>
      <point x="110" y="217" type="curve" smooth="yes"/>
      <point x="113" y="271"/>
      <point x="121" y="330"/>
      <point x="134" y="385" type="curve" smooth="yes"/>
      <point x="160" y="500"/>
      <point x="200" y="588"/>
      <point x="255" y="588" type="curve" smooth="yes"/>
      <point x="304" y="588"/>
      <point x="322" y="513"/>
      <point x="315" y="391" type="curve" smooth="yes"/>
      <point x="313" y="339"/>
      <point x="304" y="283"/>
      <point x="292" y="230" type="curve" smooth="yes"/>
      <point x="267" y="112"/>
      <point x="225" y="21"/>
    </contour>
  </outline>
</glyph>
<glyph name="five" format="2">
  <advance width="393"/>
  <unicode hex="0035"/>
  <outline>
    <contour>
      <point x="159" y="-90" type="curve" smooth="yes"/>
      <point x="278" y="-90"/>
      <point x="356" y="23"/>
      <point x="363" y="162" type="curve" smooth="yes"/>
      <point x="370" y="279"/>
      <point x="318" y="366"/>
      <point x="228" y="366" type="curve" smooth="yes"/>
      <point x="184" y="366"/>
      <point x="135" y="346"/>
      <point x="98" y="285" type="curve"/>
      <point x="107" y="284" type="line"/>
      <point x="153" y="558" type="line"/>
      <point x="136" y="523" type="line"/>
      <point x="370" y="523" type="line"/>
      <point x="398" y="609" type="line"/>
      <point x="136" y="609" type="line"/>
      <point x="69" y="238" type="line"/>
      <point x="92" y="238" type="line"/>
      <point x="123" y="297"/>
      <point x="159" y="332"/>
      <point x="210" y="332" type="curve" smooth="yes"/>
      <point x="264" y="332"/>
      <point x="289" y="271"/>
      <point x="284" y="163" type="curve" smooth="yes"/>
      <point x="276" y="28"/>
      <point x="231" y="-57"/>
      <point x="156" y="-57" type="curve" smooth="yes"/>
      <point x="78" y="-57"/>
      <point x="40" y="9"/>
      <point x="28" y="94" type="curve"/>
      <point x="4" y="74" type="line"/>
      <point x="18" y="-18"/>
      <point x="66" y="-90"/>
    </contour>
  </outline>
</glyph>
<glyph name="six" format="2">
  <advance width="393"/>
  <unicode hex="0036"/>
  <outline>
    <contour>
      <point x="187" y="-10" type="curve" smooth="yes"/>
      <point x="286" y="-10"/>
      <point x="372" y="96"/>
      <point x="380" y="257" type="curve" smooth="yes"/>
      <point x="387" y="381"/>
      <point x="335" y="453"/>
      <point x="263" y="453" type="curve" smooth="yes"/>
      <point x="200" y="453"/>
      <point x="143" y="387"/>
      <point x="110" y="301" type="curve"/>
      <point x="113" y="276" type="line"/>
      <point x="150" y="363"/>
      <point x="192" y="419"/>
      <point x="239" y="419" type="curve" smooth="yes"/>
      <point x="287" y="419"/>
      <point x="304" y="361"/>
      <point x="299" y="264" type="curve" smooth="yes"/>
      <point x="297" y="236"/>
      <point x="294" y="210"/>
      <point x="290" y="184" type="curve" smooth="yes"/>
      <point x="271" y="85"/>
      <point x="236" y="23"/>
      <point x="189" y="23" type="curve" smooth="yes"/>
      <point x="138" y="23"/>
      <point x="109" y="91"/>
      <point x="116" y="221" type="curve" smooth="yes"/>
      <point x="117" y="257"/>
      <point x="122" y="293"/>
      <point x="129" y="327" type="curve" smooth="yes"/>
      <point x="164" y="537"/>
      <point x="265" y="681"/>
      <point x="409" y="714" type="curve"/>
      <point x="411" y="740" type="line"/>
      <point x="201" y="706"/>
      <point x="50" y="487"/>
      <point x="37" y="244" type="curve" smooth="yes"/>
      <point x="29" y="90"/>
      <point x="90" y="-10"/>
    </contour>
  </outline>
</glyph>
<glyph name="at" format="2">
  <advance width="636"/>
  <unicode hex="0040"/>
  <outline>
    <contour>
      <point x="302" y="-153" type="curve" smooth="yes"/>
      <point x="381" y="-153"/>
      <point x="445" y="-123"/>
      <point x="484" y="-87" type="curve"/>
      <point x="482" y="-54" type="line"/>
      <point x="438" y="-92"/>
      <point x="390" y="-122"/>
      <point x="304" y="-122" type="curve" smooth="yes"/>
      <point x="162" y="-122"/>
      <point x="67" y="10"/>
      <point x="78" y="223" type="curve" smooth="yes"/>
      <point x="90" y="461"/>
      <point x="220" y="642"/>
      <point x="386" y="642" type="curve" smooth="yes"/>
      <point x="520" y="642"/>
      <point x="589" y="512"/>
      <point x="581" y="357" type="curve" smooth="yes"/>
      <point x="571" y="171"/>
      <point x="513" y="80"/>
      <point x="454" y="80" type="curve" smooth="yes"/>
      <point x="436" y="80"/>
      <point x="423" y="98"/>
      <point x="425" y="138" type="curve" smooth="yes"/>
      <point x="426" y="149"/>
      <point x="428" y="163"/>
      <point x="431" y="177" type="curve" smooth="yes"/>
      <point x="501" y="468" type="line"/>
      <point x="463" y="468" type="line"/>
      <point x="423" y="399" type="line"/>
      <point x="414" y="395" type="line"/>
      <point x="356" y="140" type="line"/>
      <point x="364" y="144" type="line"/>
      <point x="367" y="93"/>
      <point x="393" y="49"/>
      <point x="441" y="49" type="curve" smooth="yes"/>
      <point x="527" y="49"/>
      <point x="613" y="161"/>
      <point x="624" y="355" type="curve" smooth="yes"/>
      <point x="633" y="529"/>
      <point x="542" y="673"/>
      <point x="387" y="673" type="curve" smooth="yes"/>
      <point x="197" y="673"/>
      <point x="44" y="474"/>
      <point x="31" y="220" type="curve" smooth="yes"/>
      <point x="18" y="-18"/>
      <point x="137" y="-153"/>
    </contour>
    <contour>
      <point x="269" y="49" type="curve" smooth="yes"/>
      <point x="319" y="49"/>
      <point x="361" y="108"/>
      <point x="405" y="228" type="curve"/>
      <point x="387" y="237" type="line"/>
      <point x="352" y="130"/>
      <point x="315" y="81"/>
      <point x="282" y="81" type="curve" smooth="yes"/>
      <point x="254" y="81"/>
      <point x="241" y="118"/>
      <point x="245" y="198" type="curve" smooth="yes"/>
      <point x="252" y="317"/>
      <point x="296" y="443"/>
      <point x="359" y="443" type="curve" smooth="yes"/>
      <point x="391" y="443"/>
      <point x="409" y="416"/>
      <point x="415" y="369" type="curve"/>
      <point x="434" y="384" type="line"/>
      <point x="421" y="444"/>
      <point x="394" y="474"/>
      <point x="351" y="474" type="curve" smooth="yes"/>
      <point x="248" y="474"/>
      <point x="183" y="335"/>
      <point x="176" y="210" type="curve" smooth="yes"/>
      <point x="170" y="101"/>
      <point x="214" y="49"/>
    </contour>
  </outline>
</glyph>
<glyph name="A" format="2">
  <advance width="456"/>
  <unicode hex="0041"/>
  <guideline x="301" y="42" angle="92.91532211664253" identifier="U3HyzdL096"/>
  <guideline x="50" y="53" angle="68.31002978868221" identifier="kYApM9gGmu"/>
  <anchor x="281" y="721" name="top"/>
  <anchor x="432" y="0" name="right"/>
  <anchor x="243" y="0" name="bottom"/>
  <outline>
    <contour>
      <point x="127" y="283" type="line"/>
      <point x="112" y="250" type="line"/>
      <point x="305" y="250" type="line"/>
      <point x="310" y="283" type="line"/>
    </contour>
    <contour>
      <point x="271" y="668" type="line"/>
      <point x="303" y="42" type="line"/>
      <point x="303" y="35"/>
      <point x="276" y="31"/>
      <point x="254" y="31" type="curve" smooth="yes"/>
      <point x="243" y="31" type="line"/>
      <point x="237" y="0" type="line"/>
      <point x="416" y="0" type="line"/>
      <point x="421" y="31" type="line"/>
      <point x="418" y="31" type="line" smooth="yes"/>
      <point x="400" y="31"/>
      <point x="383" y="35"/>
      <point x="382" y="62" type="curve" smooth="yes"/>
      <point x="347" y="710" type="line"/>
      <point x="283" y="710" type="line"/>
      <point x="32" y="89" type="line" smooth="yes"/>
      <point x="15" y="47"/>
      <point x="-6.0" y="31.0"/>
      <point x="-27" y="31" type="curve" smooth="yes"/>
      <point x="-32" y="31" type="line"/>
      <point x="-38" y="0" type="line"/>
      <point x="104" y="0" type="line"/>
      <point x="110" y="31" type="line"/>
      <point x="92" y="31" type="line" smooth="yes"/>
      <point x="57.0" y="31"/>
      <point x="52" y="41"/>
      <point x="54" y="53" type="curve"/>
      <point x="296" y="655" type="line"/>
    </contour>
  </outline>
</glyph>
<glyph name="B" format="2">
  <advance width="472"/>
  <unicode hex="0042"/>
  <outline>
    <contour>
      <point x="258" y="356" type="line" smooth="yes"/>
      <point x="325" y="356"/>
      <point x="356" y="310"/>
      <point x="356.0" y="228" type="curve" smooth="yes"/>
      <point x="356" y="144"/>
      <point x="323" y="33"/>
      <point x="217" y="33" type="curve" smooth="yes"/>
      <point x="136" y="33" type="line"/>
      <point x="193" y="356" type="line"/>
    </contour>
    <contour>
      <point x="288" y="677" type="line" smooth="yes"/>
      <point x="348" y="677"/>
      <point x="381" y="632"/>
      <point x="381.0" y="554" type="curve" smooth="yes"/>
      <point x="381.0" y="490"/>
      <point x="358" y="387"/>
      <point x="253" y="387" type="curve" smooth="yes"/>
      <point x="199" y="387" type="line"/>
      <point x="250" y="677" type="line"/>
    </contour>
    <contour>
      <point x="285" y="371" type="line"/>
      <point x="407" y="371.0"/>
      <point x="463" y="465"/>
      <point x="463.0" y="553" type="curve" smooth="yes"/>
      <point x="463" y="645"/>
      <point x="400.0" y="710.0"/>
      <point x="292" y="710" type="curve" smooth="yes"/>
      <point x="115" y="710" type="line"/>
      <point x="110" y="679" type="line"/>
      <point x="115" y="679" type="line" smooth="yes"/>
      <point x="139.2" y="679.0"/>
      <point x="166" y="671"/>
      <point x="162" y="647" type="curve" smooth="yes"/>
      <point x="58" y="62" type="line" smooth="yes"/>
      <point x="53" y="36"/>
      <point x="27" y="31"/>
      <point x="0" y="31" type="curve" smooth="yes"/>
      <point x="-5" y="31" type="line"/>
      <point x="-10" y="0" type="line"/>
      <point x="216" y="0" type="line" smooth="yes"/>
      <point x="385.0" y="0.0"/>
      <point x="441.0" y="115"/>
      <point x="441.0" y="208" type="curve" smooth="yes"/>
      <point x="441" y="303"/>
      <point x="382" y="372"/>
      <point x="273" y="383" type="curve"/>
      <point x="304" y="365" type="line"/>
      <point x="309" y="385" type="line"/>
    </contour>
  </outline>
</glyph>
<glyph name="C" format="2">
  <advance width="500"/>
  <unicode hex="0043"/>
  <guideline x="440" y="210" angle="329.34933204294714" identifier="oeYtKODgQh"/>
  <anchor x="303" y="741" name="top"/>
  <anchor x="264" y="0" name="bottom"/>
  <outline>
    <contour>
      <point x="346" y="684" type="curve" smooth="yes"/>
      <point x="434" y="684"/>
      <point x="471" y="611"/>
      <point x="478" y="526" type="curve"/>
      <point x="506" y="526" type="line"/>
      <point x="541" y="710" type="line"/>
      <point x="509" y="710" type="line"/>
      <point x="480" y="606" type="line"/>
      <point x="498" y="593" type="line"/>
      <point x="482" y="668"/>
      <point x="436" y="720"/>
      <point x="346" y="720" type="curve" smooth="yes"/>
      <point x="165" y="720"/>
      <point x="44" y="511"/>
      <point x="44" y="291" type="curve" smooth="yes"/>
      <point x="44" y="116"/>
      <point x="120" y="-10"/>
      <point x="255.0" y="-10.0" type="curve" smooth="yes"/>
      <point x="359" y="-10"/>
      <point x="427" y="67"/>
      <point x="470" y="192" type="curve"/>
      <point x="440" y="210" type="line"/>
      <point x="403" y="101"/>
      <point x="346" y="26"/>
      <point x="262.0" y="26.0" type="curve" smooth="yes"/>
      <point x="168" y="26"/>
      <point x="130" y="113"/>
      <point x="130" y="270" type="curve" smooth="yes"/>
      <point x="130" y="503"/>
      <point x="206" y="684"/>
    </contour>
  </outline>
</glyph>
<glyph name="E" format="2">
  <advance width="440"/>
  <unicode hex="0045"/>
  <anchor x="320" y="741" name="top"/>
  <anchor x="344" y="0" name="right"/>
  <anchor x="281" y="0" name="bottom"/>
  <outline>
    <contour>
      <point x="401" y="206" type="line"/>
      <point x="373" y="206" type="line"/>
      <point x="335" y="93" type="line" smooth="yes"/>
      <point x="320" y="49"/>
      <point x="297" y="33"/>
      <point x="238" y="33" type="curve" smooth="yes"/>
      <point x="136" y="33" type="line"/>
      <point x="250" y="677" type="line"/>
      <point x="333" y="677" type="line" smooth="yes"/>
      <point x="389" y="677"/>
      <point x="408" y="661"/>
      <point x="408" y="620" type="curve" smooth="yes"/>
      <point x="409" y="529" type="line"/>
      <point x="437" y="529" type="line"/>
      <point x="468" y="710" type="line"/>
      <point x="115" y="710" type="line"/>
      <point x="110" y="679" type="line"/>
      <point x="115" y="679" type="line" smooth="yes"/>
      <point x="139.0" y="679.0"/>
      <point x="166" y="671"/>
      <point x="162" y="647" type="curve" smooth="yes"/>
      <point x="58" y="62" type="line" smooth="yes"/>
      <point x="53" y="36"/>
      <point x="27" y="31"/>
      <point x="0" y="31" type="curve" smooth="yes"/>
      <point x="-5" y="31" type="line"/>
      <point x="-10" y="0" type="line"/>
      <point x="365" y="0" type="line"/>
    </contour>
    <contour>
      <point x="188" y="378" type="curve"/>
      <point x="181" y="347" type="line"/>
      <point x="249" y="345"/>
      <point x="291" y="347"/>
      <point x="340" y="327" type="curve"/>
      <point x="352" y="397" type="line"/>
      <point x="296" y="379"/>
      <point x="257" y="380"/>
    </contour>
  </outline>
</glyph>
<glyph name="F" format="2">
  <advance width="418"/>
  <unicode hex="0046"/>
  <outline>
    <contour>
      <point x="-10" y="0" type="line"/>
      <point x="199" y="0" type="line"/>
      <point x="204" y="31" type="line"/>
      <point x="192" y="31" type="line" smooth="yes"/>
      <point x="160.0" y="31"/>
      <point x="136" y="36"/>
      <point x="142" y="68" type="curve" smooth="yes"/>
      <point x="250" y="677" type="line"/>
      <point x="333" y="677" type="line" smooth="yes"/>
      <point x="389" y="677"/>
      <point x="408" y="661"/>
      <point x="408" y="620" type="curve" smooth="yes"/>
      <point x="409" y="529" type="line"/>
      <point x="437" y="529" type="line"/>
      <point x="468" y="710" type="line"/>
      <point x="115" y="710" type="line"/>
      <point x="110" y="679" type="line"/>
      <point x="115" y="679" type="line" smooth="yes"/>
      <point x="139.0" y="679.0"/>
      <point x="166" y="671"/>
      <point x="162" y="647" type="curve" smooth="yes"/>
      <point x="58" y="62" type="line" smooth="yes"/>
      <point x="53" y="36"/>
      <point x="27" y="31"/>
      <point x="0" y="31" type="curve" smooth="yes"/>
      <point x="-5" y="31" type="line"/>
    </contour>
    <contour>
      <point x="188" y="378" type="curve"/>
      <point x="181" y="347" type="line"/>
      <point x="249" y="345"/>
      <point x="291" y="347"/>
      <point x="340" y="327" type="curve"/>
      <point x="352" y="397" type="line"/>
      <point x="296" y="379"/>
      <point x="257" y="380"/>
    </contour>
  </outline>
</glyph>
<glyph name="G" format="2">
  <advance width="531"/>
  <unicode hex="0047"/>
  <anchor x="307" y="741" name="top"/>
  <anchor x="268" y="0" name="bottom"/>
  <outline>
    <contour>
      <point x="455" y="83" type="curve"/>
      <point x="489" y="273" type="line" smooth="yes"/>
      <point x="494" y="302"/>
      <point x="519" y="309"/>
      <point x="538" y="309" type="curve" smooth="yes"/>
      <point x="542" y="309" type="line"/>
      <point x="546" y="334" type="line"/>
      <point x="359" y="334" type="line"/>
      <point x="355" y="309" type="line"/>
      <point x="364" y="309" type="line" smooth="yes"/>
      <point x="409" y="309"/>
      <point x="414" y="290"/>
      <point x="411" y="273" type="curve" smooth="yes"/>
      <point x="376" y="76" type="line"/>
      <point x="363" y="54"/>
      <point x="322" y="26"/>
      <point x="267" y="26" type="curve" smooth="yes"/>
      <point x="169" y="26"/>
      <point x="130" y="113"/>
      <point x="130" y="270" type="curve" smooth="yes"/>
      <point x="130" y="503"/>
      <point x="206" y="684"/>
      <point x="346" y="684.0" type="curve" smooth="yes"/>
      <point x="434" y="684.0"/>
      <point x="471" y="611"/>
      <point x="478" y="526" type="curve"/>
      <point x="506" y="526" type="line"/>
      <point x="541" y="710" type="line"/>
      <point x="509" y="710" type="line"/>
      <point x="480" y="606" type="line"/>
      <point x="498" y="593" type="line"/>
      <point x="482" y="668"/>
      <point x="436" y="720.0"/>
      <point x="346" y="720.0" type="curve" smooth="yes"/>
      <point x="165" y="720"/>
      <point x="44" y="511"/>
      <point x="44" y="291" type="curve" smooth="yes"/>
      <point x="44" y="116"/>
      <point x="121" y="-10"/>
      <point x="263" y="-10.0" type="curve" smooth="yes"/>
      <point x="347" y="-10"/>
      <point x="415" y="34"/>
    </contour>
  </outline>
</glyph>
<glyph name="H" format="2">
  <advance width="548"/>
  <unicode hex="0048"/>
  <anchor x="312" y="741" name="top"/>
  <anchor x="273" y="0" name="bottom"/>
  <outline>
    <contour>
      <point x="167" y="384" type="line"/>
      <point x="160" y="351" type="line"/>
      <point x="431" y="351" type="line"/>
      <point x="437" y="384" type="line"/>
    </contour>
    <contour>
      <point x="-10" y="0" type="line"/>
      <point x="186" y="0" type="line"/>
      <point x="192" y="31" type="line"/>
      <point x="186" y="31" type="line" smooth="yes"/>
      <point x="164" y="31"/>
      <point x="136" y="34"/>
      <point x="137" y="41" type="curve" smooth="yes"/>
      <point x="249" y="671" type="line" smooth="yes"/>
      <point x="250" y="677"/>
      <point x="278" y="679"/>
      <point x="300" y="679" type="curve" smooth="yes"/>
      <point x="306" y="679" type="line"/>
      <point x="311" y="710" type="line"/>
      <point x="115" y="710" type="line"/>
      <point x="110" y="679" type="line"/>
      <point x="115" y="679" type="line" smooth="yes"/>
      <point x="139" y="679"/>
      <point x="166" y="671"/>
      <point x="162" y="647" type="curve" smooth="yes"/>
      <point x="58" y="62" type="line" smooth="yes"/>
      <point x="53" y="36"/>
      <point x="27" y="31"/>
      <point x="0" y="31" type="curve" smooth="yes"/>
      <point x="-5" y="31" type="line"/>
    </contour>
    <contour>
      <point x="603" y="710" type="line"/>
      <point x="407" y="710" type="line"/>
      <point x="401" y="679" type="line"/>
      <point x="407" y="679" type="line" smooth="yes"/>
      <point x="429" y="679"/>
      <point x="457" y="676"/>
      <point x="456" y="669" type="curve" smooth="yes"/>
      <point x="344" y="39" type="line" smooth="yes"/>
      <point x="343" y="33"/>
      <point x="315" y="31"/>
      <point x="293" y="31" type="curve" smooth="yes"/>
      <point x="287" y="31" type="line"/>
      <point x="282" y="0" type="line"/>
      <point x="478" y="0" type="line"/>
      <point x="483" y="31" type="line"/>
      <point x="478" y="31" type="line" smooth="yes"/>
      <point x="454" y="31"/>
      <point x="427" y="39"/>
      <point x="431" y="63" type="curve" smooth="yes"/>
      <point x="535" y="648" type="line" smooth="yes"/>
      <point x="540" y="674"/>
      <point x="566" y="679"/>
      <point x="593" y="679" type="curve" smooth="yes"/>
      <point x="598" y="679" type="line"/>
    </contour>
  </outline>
</glyph>
<glyph name="I" format="2">
  <advance width="256"/>
  <unicode hex="0049"/>
  <anchor x="166" y="741" name="top"/>
  <anchor x="185" y="0" name="right"/>
  <anchor x="127" y="0" name="bottom"/>
  <outline>
    <contour>
      <point x="56" y="62" type="line" smooth="yes"/>
      <point x="51" y="36"/>
      <point x="25" y="31"/>
      <point x="-2" y="31" type="curve" smooth="yes"/>
      <point x="-7" y="31" type="line"/>
      <point x="-12" y="0" type="line"/>
      <point x="186" y="0" type="line"/>
      <point x="191" y="31" type="line"/>
      <point x="185" y="31" type="line" smooth="yes"/>
      <point x="158" y="31"/>
      <point x="134" y="36"/>
      <point x="140" y="68" type="curve" smooth="yes"/>
      <point x="242" y="643" type="line" smooth="yes"/>
      <point x="247" y="673"/>
      <point x="272" y="679"/>
      <point x="300" y="679" type="curve" smooth="yes"/>
      <point x="306" y="679" type="line"/>
      <point x="311" y="710" type="line"/>
      <point x="113" y="710" type="line"/>
      <point x="108" y="679" type="line"/>
      <point x="113" y="679" type="line" smooth="yes"/>
      <point x="137" y="679"/>
      <point x="164" y="671"/>
      <point x="160" y="647" type="curve" smooth="yes"/>
    </contour>
  </outline>
</glyph>
<glyph name="J" format="2">
  <advance width="406"/>
  <unicode hex="004A"/>
  <anchor x="338" y="741" name="top"/>
  <outline>
    <contour>
      <point x="317" y="647" type="curve" smooth="yes"/>
      <point x="237" y="196" type="line" smooth="yes"/>
      <point x="214" y="68"/>
      <point x="184" y="24"/>
      <point x="122" y="24" type="curve" smooth="yes"/>
      <point x="91" y="24"/>
      <point x="69" y="35"/>
      <point x="57" y="55" type="curve"/>
      <point x="56" y="49"/>
      <point x="61" y="42"/>
      <point x="65" y="36" type="curve"/>
      <point x="86" y="155" type="line"/>
      <point x="12" y="155" type="line"/>
      <point x="-5" y="58" type="line"/>
      <point x="12" y="24"/>
      <point x="55" y="-10"/>
      <point x="125" y="-10.0" type="curve" smooth="yes"/>
      <point x="221" y="-10"/>
      <point x="295" y="54"/>
      <point x="320" y="198" type="curve" smooth="yes"/>
      <point x="399" y="643" type="line" smooth="yes"/>
      <point x="404" y="673"/>
      <point x="429.0" y="679.0"/>
      <point x="457" y="679" type="curve" smooth="yes"/>
      <point x="463" y="679" type="line"/>
      <point x="468" y="710" type="line"/>
      <point x="260" y="710" type="line"/>
      <point x="255" y="679" type="line"/>
      <point x="270" y="679.0" type="line" smooth="yes"/>
      <point x="294.0" y="679.0"/>
      <point x="321" y="671"/>
    </contour>
  </outline>
</glyph>
<glyph name="K" format="2">
  <advance width="516"/>
  <unicode hex="004B"/>
  <guideline x="272" y="426" angle="291.5064109399924" identifier="58Whojxtk3"/>
  <guideline x="278" y="385" angle="50.67981653552874" identifier="oiOjE2UzWj"/>
  <anchor x="309" y="741" name="top"/>
  <anchor x="270" y="0" name="bottom"/>
  <outline>
    <contour>
      <point x="275" y="0" type="line"/>
      <point x="470" y="0" type="line"/>
      <point x="475" y="31" type="line"/>
      <point x="471" y="31" type="line" smooth="yes"/>
      <point x="442" y="31"/>
      <point x="428" y="35"/>
      <point x="420" y="56" type="curve" smooth="yes"/>
      <point x="279" y="413" type="line"/>
      <point x="278" y="385" type="line"/>
      <point x="485" y="638" type="line" smooth="yes"/>
      <point x="510" y="668"/>
      <point x="521" y="679"/>
      <point x="555" y="679" type="curve" smooth="yes"/>
      <point x="561" y="679" type="line"/>
      <point x="566" y="710" type="line"/>
      <point x="419" y="710" type="line"/>
      <point x="414" y="679" type="line"/>
      <point x="423" y="679" type="line" smooth="yes"/>
      <point x="445" y="679"/>
      <point x="468" y="674"/>
      <point x="466" y="665" type="curve"/>
      <point x="217" y="361" type="line"/>
      <point x="214" y="351" type="line"/>
      <point x="334" y="41" type="line"/>
      <point x="333" y="34"/>
      <point x="306" y="31"/>
      <point x="289" y="31" type="curve" smooth="yes"/>
      <point x="280" y="31" type="line"/>
    </contour>
    <contour>
      <point x="58" y="62" type="line" smooth="yes"/>
      <point x="53" y="36"/>
      <point x="27" y="31"/>
      <point x="0" y="31" type="curve" smooth="yes"/>
      <point x="-5" y="31" type="line"/>
      <point x="-10" y="0" type="line"/>
      <point x="188" y="0" type="line"/>
      <point x="193" y="31" type="line"/>
      <point x="187" y="31" type="line" smooth="yes"/>
      <point x="160" y="31"/>
      <point x="136" y="33"/>
      <point x="137" y="40" type="curve" smooth="yes"/>
      <point x="248" y="669" type="line" smooth="yes"/>
      <point x="249" y="676"/>
      <point x="278.0" y="679.0"/>
      <point x="302" y="679" type="curve" smooth="yes"/>
      <point x="308" y="679" type="line"/>
      <point x="313" y="710" type="line"/>
      <point x="114" y="710" type="line"/>
      <point x="109" y="679" type="line"/>
      <point x="114" y="679" type="line" smooth="yes"/>
      <point x="138" y="679"/>
      <point x="165" y="671"/>
      <point x="161" y="647" type="curve" smooth="yes"/>
    </contour>
  </outline>
</glyph>
<glyph name="L" format="2">
  <advance width="417"/>
  <unicode hex="004C"/>
  <anchor x="325" y="741" name="top"/>
  <anchor x="411" y="710" name="right"/>
  <anchor x="397" y="410" name="mid"/>
  <anchor x="286" y="0" name="bottom"/>
  <outline>
    <contour>
      <point x="312" y="710" type="line"/>
      <point x="114" y="710" type="line"/>
      <point x="109" y="679" type="line"/>
      <point x="114" y="679" type="line" smooth="yes"/>
      <point x="138" y="679"/>
      <point x="165" y="671"/>
      <point x="161" y="647" type="curve" smooth="yes"/>
      <point x="57" y="62" type="line" smooth="yes"/>
      <point x="52" y="36"/>
      <point x="26" y="31"/>
      <point x="-1" y="31" type="curve" smooth="yes"/>
      <point x="-6" y="31" type="line"/>
      <point x="-11" y="0" type="line"/>
      <point x="351" y="0" type="line"/>
      <point x="387" y="206" type="line"/>
      <point x="359" y="206" type="line"/>
      <point x="321" y="93" type="line" smooth="yes"/>
      <point x="306" y="49"/>
      <point x="283.0" y="33.0"/>
      <point x="224" y="33" type="curve" smooth="yes"/>
      <point x="135" y="33" type="line"/>
      <point x="248" y="671" type="line" smooth="yes"/>
      <point x="249" y="677"/>
      <point x="279" y="679"/>
      <point x="301" y="679" type="curve" smooth="yes"/>
      <point x="307" y="679" type="line"/>
    </contour>
  </outline>
</glyph>
<glyph name="M" format="2">
  <advance width="651"/>
  <unicode hex="004D"/>
  <guideline x="280" y="710" angle="272.9957731677828" identifier="dEuY814vlg"/>
  <guideline x="539" y="710" angle="67.80788009980314" identifier="7QSAgWEa5R"/>
  <anchor x="314" y="0" name="bottom"/>
  <outline>
    <contour>
      <point x="-8" y="0" type="line"/>
      <point x="142" y="0" type="line"/>
      <point x="148" y="31" type="line"/>
      <point x="136" y="31" type="line" smooth="yes"/>
      <point x="108.0" y="31"/>
      <point x="89" y="38"/>
      <point x="93" y="62" type="curve" smooth="yes"/>
      <point x="204" y="692" type="line"/>
      <point x="196" y="705" type="line"/>
      <point x="233" y="-2" type="line"/>
      <point x="284" y="-2" type="line"/>
      <point x="572" y="704" type="line"/>
      <point x="560" y="707" type="line"/>
      <point x="443" y="39" type="line" smooth="yes"/>
      <point x="442" y="33"/>
      <point x="414" y="31"/>
      <point x="392" y="31" type="curve" smooth="yes"/>
      <point x="386" y="31" type="line"/>
      <point x="381" y="0" type="line"/>
      <point x="577" y="0" type="line"/>
      <point x="582" y="31" type="line"/>
      <point x="577" y="31" type="line" smooth="yes"/>
      <point x="553.0" y="31"/>
      <point x="526" y="39"/>
      <point x="530" y="63" type="curve" smooth="yes"/>
      <point x="633" y="644" type="line" smooth="yes"/>
      <point x="638" y="672"/>
      <point x="664" y="679"/>
      <point x="691" y="679" type="curve" smooth="yes"/>
      <point x="696" y="679" type="line"/>
      <point x="701" y="710" type="line"/>
      <point x="539" y="710" type="line"/>
      <point x="295" y="108" type="line"/>
      <point x="308" y="108" type="line"/>
      <point x="278" y="710" type="line"/>
      <point x="117" y="710" type="line"/>
      <point x="112" y="679" type="line"/>
      <point x="119" y="679" type="line" smooth="yes"/>
      <point x="143.0" y="679.0"/>
      <point x="168" y="672"/>
      <point x="163" y="644" type="curve" smooth="yes"/>
      <point x="65" y="95" type="line" smooth="yes"/>
      <point x="57" y="50"/>
      <point x="32.0" y="31.0"/>
      <point x="5" y="31" type="curve" smooth="yes"/>
      <point x="-3" y="31" type="line"/>
    </contour>
  </outline>
</glyph>
<glyph name="N" format="2">
  <advance width="532"/>
  <unicode hex="004E"/>
  <guideline x="267" y="710" angle="281.8969913650747" identifier="dg4Wd3RbnT"/>
  <anchor x="312" y="741" name="top"/>
  <anchor x="273" y="0" name="bottom"/>
  <outline>
    <contour>
      <point x="-10" y="0" type="line"/>
      <point x="147" y="0" type="line"/>
      <point x="153" y="31" type="line"/>
      <point x="134" y="31" type="line" smooth="yes"/>
      <point x="106" y="31"/>
      <point x="87" y="38"/>
      <point x="91" y="62" type="curve" smooth="yes"/>
      <point x="202" y="692" type="line"/>
      <point x="190" y="693" type="line"/>
      <point x="334" y="0" type="line"/>
      <point x="392" y="0" type="line"/>
      <point x="502" y="618" type="line" smooth="yes"/>
      <point x="509" y="660"/>
      <point x="535" y="679"/>
      <point x="563" y="679" type="curve" smooth="yes"/>
      <point x="570" y="679" type="line"/>
      <point x="575" y="710" type="line"/>
      <point x="419" y="710" type="line"/>
      <point x="413" y="679" type="line"/>
      <point x="432" y="679" type="line" smooth="yes"/>
      <point x="460" y="679"/>
      <point x="477" y="672"/>
      <point x="474" y="648" type="curve"/>
      <point x="376" y="95" type="line"/>
      <point x="393" y="102" type="line"/>
      <point x="267" y="710" type="line"/>
      <point x="115" y="710" type="line"/>
      <point x="110" y="679" type="line"/>
      <point x="117" y="679" type="line" smooth="yes"/>
      <point x="141" y="679"/>
      <point x="165" y="672"/>
      <point x="161" y="644" type="curve" smooth="yes"/>
      <point x="63" y="95" type="line" smooth="yes"/>
      <point x="56" y="50"/>
      <point x="30" y="31"/>
      <point x="3" y="31" type="curve" smooth="yes"/>
      <point x="-5" y="31" type="line"/>
    </contour>
  </outline>
</glyph>
<glyph name="P" format="2">
  <advance width="450"/>
  <unicode hex="0050"/>
  <outline>
    <contour>
      <point x="195" y="366" type="line"/>
      <point x="248" y="677" type="line"/>
      <point x="294" y="677" type="line" smooth="yes"/>
      <point x="352.0" y="677.0"/>
      <point x="393" y="634"/>
      <point x="393.0" y="546" type="curve" smooth="yes"/>
      <point x="393" y="464"/>
      <point x="359" y="366"/>
      <point x="258" y="366" type="curve" smooth="yes"/>
    </contour>
    <contour>
      <point x="115" y="710" type="line"/>
      <point x="110" y="679" type="line"/>
      <point x="115" y="679" type="line" smooth="yes"/>
      <point x="137" y="679"/>
      <point x="161" y="673"/>
      <point x="161" y="651" type="curve" smooth="yes"/>
      <point x="161" y="650"/>
      <point x="161" y="648"/>
      <point x="161" y="647" type="curve" smooth="yes"/>
      <point x="58" y="64" type="line" smooth="yes"/>
      <point x="53" y="38"/>
      <point x="27" y="31"/>
      <point x="0" y="31" type="curve" smooth="yes"/>
      <point x="-5" y="31" type="line"/>
      <point x="-10" y="0" type="line"/>
      <point x="198" y="0" type="line"/>
      <point x="203" y="31" type="line"/>
      <point x="192" y="31" type="line" smooth="yes"/>
      <point x="168" y="31"/>
      <point x="140" y="35"/>
      <point x="140" y="52" type="curve" smooth="yes"/>
      <point x="140" y="53"/>
      <point x="140" y="54"/>
      <point x="140" y="55" type="curve" smooth="yes"/>
      <point x="189" y="334" type="line"/>
      <point x="259" y="334" type="line" smooth="yes"/>
      <point x="400.0" y="334.0"/>
      <point x="477" y="432"/>
      <point x="477.0" y="545" type="curve" smooth="yes"/>
      <point x="477" y="652"/>
      <point x="408.0" y="710.0"/>
      <point x="305" y="710" type="curve" smooth="yes"/>
    </contour>
  </outline>
</glyph>
<glyph name="Q" format="2">
  <advance width="507"/>
  <unicode hex="0051"/>
  <outline>
    <contour>
      <point x="318" y="720" type="curve" smooth="yes"/>
      <point x="157" y="720"/>
      <point x="44" y="503"/>
      <point x="44" y="285" type="curve" smooth="yes"/>
      <point x="44" y="108"/>
      <point x="124" y="-10"/>
      <point x="243" y="-10" type="curve" smooth="yes"/>
      <point x="404" y="-10"/>
      <point x="517" y="207"/>
      <point x="517" y="425" type="curve" smooth="yes"/>
      <point x="517" y="602"/>
      <point x="437" y="720"/>
    </contour>
    <contour>
      <point x="243" y="25" type="curve" smooth="yes"/>
      <point x="174" y="25"/>
      <point x="130" y="104"/>
      <point x="130" y="252" type="curve" smooth="yes"/>
      <point x="130" y="444"/>
      <point x="194" y="685"/>
      <point x="318" y="685" type="curve" smooth="yes"/>
      <point x="387" y="685"/>
      <point x="431" y="606"/>
      <point x="431" y="458" type="curve" smooth="yes"/>
      <point x="431" y="266"/>
      <point x="367" y="25"/>
    </contour>
    <contour>
      <point x="355" y="-154" type="curve" smooth="yes"/>
      <point x="374" y="-154"/>
      <point x="396" y="-153"/>
      <point x="418" y="-148" type="curve"/>
      <point x="436" y="-66" type="line"/>
      <point x="407" y="-78"/>
      <point x="378" y="-83"/>
      <point x="351" y="-83.0" type="curve" smooth="yes"/>
      <point x="291" y="-83"/>
      <point x="250" y="-57"/>
      <point x="254" y="8" type="curve" smooth="yes"/>
      <point x="254" y="9"/>
      <point x="254" y="9"/>
      <point x="254" y="10" type="curve"/>
      <point x="225" y="17" type="line"/>
      <point x="223" y="10"/>
      <point x="223" y="4"/>
      <point x="223" y="-2" type="curve" smooth="yes"/>
      <point x="217" y="-95"/>
      <point x="264" y="-154"/>
    </contour>
  </outline>
</glyph>
<glyph name="S" format="2">
  <advance width="422"/>
  <unicode hex="0053"/>
  <anchor x="284" y="741" name="top"/>
  <anchor x="245" y="0" name="bottom"/>
  <outline>
    <contour>
      <point x="214" y="-10" type="curve" smooth="yes"/>
      <point x="313" y="-10"/>
      <point x="393" y="62"/>
      <point x="393.0" y="188" type="curve" smooth="yes"/>
      <point x="393" y="404"/>
      <point x="162" y="411"/>
      <point x="162.0" y="565" type="curve" smooth="yes"/>
      <point x="162" y="626"/>
      <point x="198" y="685"/>
      <point x="269" y="685.0" type="curve" smooth="yes"/>
      <point x="336" y="685"/>
      <point x="375" y="634"/>
      <point x="383" y="537" type="curve"/>
      <point x="411" y="537" type="line"/>
      <point x="441" y="710" type="line"/>
      <point x="409" y="710" type="line"/>
      <point x="383" y="616" type="line"/>
      <point x="383" y="613"/>
      <point x="383" y="611"/>
      <point x="383" y="608" type="curve" smooth="yes"/>
      <point x="383" y="586"/>
      <point x="396" y="573"/>
      <point x="409" y="571" type="curve"/>
      <point x="394" y="677"/>
      <point x="340" y="720"/>
      <point x="262" y="720.0" type="curve" smooth="yes"/>
      <point x="155" y="720"/>
      <point x="96" y="638"/>
      <point x="96" y="537" type="curve" smooth="yes"/>
      <point x="96" y="339"/>
      <point x="321" y="342"/>
      <point x="321.0" y="162" type="curve" smooth="yes"/>
      <point x="321" y="89"/>
      <point x="284" y="25"/>
      <point x="207" y="25" type="curve" smooth="yes"/>
      <point x="139" y="25"/>
      <point x="81" y="72"/>
      <point x="63" y="207" type="curve"/>
      <point x="35" y="207" type="line"/>
      <point x="0" y="0" type="line"/>
      <point x="32" y="0" type="line"/>
      <point x="66" y="127" type="line"/>
      <point x="66" y="147"/>
      <point x="52" y="158"/>
      <point x="40" y="162" type="curve"/>
      <point x="56" y="46"/>
      <point x="127" y="-10"/>
    </contour>
  </outline>
</glyph>
<glyph name="U" format="2">
  <advance width="528"/>
  <unicode hex="0055"/>
  <anchor x="289" y="741" name="top"/>
  <anchor x="301" y="0" name="right"/>
  <anchor x="250" y="0" name="bottom"/>
  <outline>
    <contour>
      <point x="160" y="238" type="curve" smooth="yes"/>
      <point x="236" y="669" type="line" smooth="yes"/>
      <point x="237" y="676"/>
      <point x="267" y="679"/>
      <point x="290" y="679" type="curve" smooth="yes"/>
      <point x="295" y="679" type="line"/>
      <point x="300" y="710" type="line"/>
      <point x="103" y="710" type="line"/>
      <point x="99" y="679" type="line"/>
      <point x="103" y="679" type="line" smooth="yes"/>
      <point x="129" y="679"/>
      <point x="154" y="673"/>
      <point x="150" y="648" type="curve" smooth="yes"/>
      <point x="80" y="249" type="line" smooth="yes"/>
      <point x="51" y="82"/>
      <point x="125" y="-10"/>
      <point x="244" y="-10.0" type="curve" smooth="yes"/>
      <point x="355" y="-10"/>
      <point x="420" y="70"/>
      <point x="441" y="190" type="curve" smooth="yes"/>
      <point x="517" y="619" type="line" smooth="yes"/>
      <point x="525" y="664"/>
      <point x="552" y="679"/>
      <point x="577" y="679" type="curve" smooth="yes"/>
      <point x="585" y="679" type="line"/>
      <point x="589" y="710" type="line"/>
      <point x="433" y="710" type="line"/>
      <point x="428" y="679" type="line"/>
      <point x="442" y="679" type="line" smooth="yes"/>
      <point x="476" y="679"/>
      <point x="491" y="672"/>
      <point x="488" y="655" type="curve" smooth="yes"/>
      <point x="406" y="192" type="line" smooth="yes"/>
      <point x="390" y="100"/>
      <point x="347" y="37"/>
      <point x="267.0" y="37.0" type="curve" smooth="yes"/>
      <point x="178" y="37"/>
      <point x="138" y="113"/>
    </contour>
  </outline>
</glyph>
<glyph name="V" format="2">
  <advance width="453"/>
  <unicode hex="0056"/>
  <guideline x="202" y="668" angle="272.9379522428847" identifier="CRKrSRm4zH"/>
  <guideline x="450" y="655" angle="248.19859051364818" identifier="LTqH1KoGV3"/>
  <outline>
    <contour>
      <point x="231" y="62" type="line"/>
      <point x="202" y="668" type="line"/>
      <point x="203" y="675"/>
      <point x="231" y="679"/>
      <point x="253" y="679" type="curve" smooth="yes"/>
      <point x="264" y="679" type="line"/>
      <point x="269" y="710" type="line"/>
      <point x="88" y="710" type="line"/>
      <point x="84" y="679" type="line"/>
      <point x="87" y="679" type="line"/>
      <point x="105" y="679"/>
      <point x="120" y="674"/>
      <point x="121" y="648" type="curve" smooth="yes"/>
      <point x="154" y="0" type="line"/>
      <point x="220" y="0" type="line"/>
      <point x="468" y="620" type="line" smooth="yes"/>
      <point x="485" y="663"/>
      <point x="507" y="679"/>
      <point x="528" y="679" type="curve"/>
      <point x="533" y="679" type="line"/>
      <point x="537" y="710" type="line"/>
      <point x="395" y="710" type="line"/>
      <point x="390" y="679" type="line"/>
      <point x="408" y="679" type="line" smooth="yes"/>
      <point x="441" y="679"/>
      <point x="445" y="668"/>
      <point x="444" y="655" type="curve"/>
      <point x="209" y="63" type="line"/>
    </contour>
  </outline>
</glyph>
<glyph name="W" format="2">
  <advance width="681"/>
  <unicode hex="0057"/>
  <guideline x="206" y="669" angle="269.38013167128577" identifier="nFQNESqFEq"/>
  <guideline x="474" y="710" angle="271.0399081978751" identifier="D3wVDvdeva"/>
  <guideline x="428" y="710" angle="249.28996183591315" identifier="quHM71bswr"/>
  <guideline x="671" y="655" angle="250.77714317189808" identifier="K8pgkLD5UA"/>
  <guideline x="498" y="137" angle="0" identifier="SfkSiODLNz"/>
  <anchor x="372" y="741" name="top"/>
  <outline>
    <contour>
      <point x="92" y="710" type="line"/>
      <point x="87" y="679" type="line"/>
      <point x="91" y="679" type="line" smooth="yes"/>
      <point x="111" y="679"/>
      <point x="125" y="675"/>
      <point x="125" y="647" type="curve" smooth="yes"/>
      <point x="118" y="0" type="line"/>
      <point x="183" y="0" type="line"/>
      <point x="414" y="611" type="line"/>
      <point x="399" y="611" type="line"/>
      <point x="409" y="0" type="line"/>
      <point x="474" y="0" type="line"/>
      <point x="686" y="608" type="line" smooth="yes"/>
      <point x="702" y="658"/>
      <point x="726" y="679"/>
      <point x="749" y="679" type="curve" smooth="yes"/>
      <point x="753" y="679" type="line"/>
      <point x="758" y="710" type="line"/>
      <point x="610" y="710" type="line"/>
      <point x="606" y="679" type="line"/>
      <point x="626" y="679" type="line" smooth="yes"/>
      <point x="662" y="679"/>
      <point x="669" y="667"/>
      <point x="667" y="655" type="curve"/>
      <point x="461" y="63" type="line"/>
      <point x="489" y="61" type="line"/>
      <point x="477" y="710" type="line"/>
      <point x="416" y="711" type="line"/>
      <point x="168" y="55" type="line"/>
      <point x="199" y="56" type="line"/>
      <point x="206" y="669" type="line"/>
      <point x="207" y="676"/>
      <point x="236" y="679"/>
      <point x="262" y="679" type="curve" smooth="yes"/>
      <point x="276" y="679" type="line"/>
      <point x="281" y="710" type="line"/>
    </contour>
  </outline>
</glyph>
<glyph name="Y" format="2">
  <advance width="441"/>
  <unicode hex="0059"/>
  <guideline x="209" y="666" angle="281.52521350954476" identifier="wGpdoNYBLF"/>
  <guideline x="431" y="656" angle="241.61442448912638" identifier="Md7w3Aa1Fs"/>
  <anchor x="244" y="741" name="top"/>
  <anchor x="205" y="0" name="bottom"/>
  <outline>
    <contour>
      <point x="78" y="0" type="line"/>
      <point x="288" y="0" type="line"/>
      <point x="295" y="31" type="line"/>
      <point x="282" y="31.0" type="line" smooth="yes"/>
      <point x="255.0" y="31"/>
      <point x="231" y="36"/>
      <point x="237" y="68" type="curve" smooth="yes"/>
      <point x="284" y="328" type="line"/>
      <point x="269" y="292" type="line"/>
      <point x="443" y="614" type="line" smooth="yes"/>
      <point x="468" y="660"/>
      <point x="484" y="679"/>
      <point x="503" y="679" type="curve" smooth="yes"/>
      <point x="509" y="679" type="line"/>
      <point x="514" y="710" type="line"/>
      <point x="378" y="710" type="line"/>
      <point x="373" y="679" type="line"/>
      <point x="391" y="679" type="line" smooth="yes"/>
      <point x="422" y="679"/>
      <point x="430" y="669"/>
      <point x="428" y="656" type="curve"/>
      <point x="257" y="337" type="line"/>
      <point x="275" y="337" type="line"/>
      <point x="209" y="666" type="line"/>
      <point x="210" y="675"/>
      <point x="237" y="679"/>
      <point x="258" y="679" type="curve" smooth="yes"/>
      <point x="270" y="679" type="line"/>
      <point x="275" y="710" type="line"/>
      <point x="96" y="710" type="line"/>
      <point x="91" y="679" type="line"/>
      <point x="95" y="679" type="line" smooth="yes"/>
      <point x="113.0" y="679.0"/>
      <point x="123" y="676"/>
      <point x="128" y="650" type="curve" smooth="yes"/>
      <point x="201" y="292" type="line"/>
      <point x="200" y="328" type="line"/>
      <point x="153" y="62" type="line" smooth="yes"/>
      <point x="148" y="36"/>
      <point x="122.0" y="31.0"/>
      <point x="96" y="31" type="curve" smooth="yes"/>
      <point x="85" y="31" type="line"/>
    </contour>
  </outline>
</glyph>
<glyph name="a" format="2">
  <advance width="417"/>
  <unicode hex="0061"/>
  <anchor x="212" y="518" name="top"/>
  <anchor x="354" y="-10" name="right"/>
  <anchor x="215" y="0" name="bottom"/>
  <outline>
    <contour>
      <point x="140" y="-10.0" type="curve" smooth="yes"/>
      <point x="222" y="-10"/>
      <point x="264" y="83"/>
      <point x="314" y="227" type="curve"/>
      <point x="297" y="246" type="line"/>
      <point x="258" y="136"/>
      <point x="221" y="33"/>
      <point x="164" y="33.0" type="curve" smooth="yes"/>
      <point x="134" y="33"/>
      <point x="114" y="61"/>
      <point x="114" y="140" type="curve" smooth="yes"/>
      <point x="114.0" y="295"/>
      <point x="178" y="490"/>
      <point x="267" y="490.0" type="curve" smooth="yes"/>
      <point x="305" y="490"/>
      <point x="336" y="454"/>
      <point x="349" y="387" type="curve"/>
      <point x="363" y="417" type="line"/>
      <point x="350" y="483"/>
      <point x="317" y="528"/>
      <point x="253" y="528.0" type="curve" smooth="yes"/>
      <point x="118" y="528.0"/>
      <point x="33.0" y="323"/>
      <point x="33" y="160" type="curve" smooth="yes"/>
      <point x="33" y="43"/>
      <point x="81" y="-10"/>
    </contour>
    <contour>
      <point x="265" y="113" type="line"/>
      <point x="243.66666666666666" y="27.66666666666667"/>
      <point x="272.2857142857143" y="-10.0"/>
      <point x="318" y="-10" type="curve" smooth="yes"/>
      <point x="353" y="-10"/>
      <point x="382" y="10"/>
      <point x="396" y="28" type="curve"/>
      <point x="404" y="60" type="line"/>
      <point x="389" y="45"/>
      <point x="372" y="31"/>
      <point x="353" y="31" type="curve" smooth="yes"/>
      <point x="334" y="31.0"/>
      <point x="327" y="45"/>
      <point x="333" y="79" type="curve" smooth="yes"/>
      <point x="412" y="522" type="line"/>
      <point x="376" y="522" type="line"/>
      <point x="333" y="469" type="line"/>
      <point x="323" y="466" type="line"/>
      <point x="260" y="123" type="line"/>
    </contour>
  </outline>
</glyph>
<glyph name="b" format="2">
  <advance width="425"/>
  <unicode hex="0062"/>
  <outline>
    <contour>
      <point x="183" y="-10.0" type="curve" smooth="yes"/>
      <point x="341" y="-10"/>
      <point x="417" y="205"/>
      <point x="417" y="358" type="curve" smooth="yes"/>
      <point x="417" y="475"/>
      <point x="369" y="528"/>
      <point x="310" y="528" type="curve" smooth="yes"/>
      <point x="227" y="528"/>
      <point x="176" y="435"/>
      <point x="126" y="291" type="curve"/>
      <point x="143" y="272" type="line"/>
      <point x="182" y="382"/>
      <point x="228" y="485"/>
      <point x="286" y="485" type="curve" smooth="yes"/>
      <point x="316" y="485"/>
      <point x="336" y="457"/>
      <point x="336" y="378" type="curve" smooth="yes"/>
      <point x="336" y="223"/>
      <point x="277" y="28"/>
      <point x="179" y="28" type="curve" smooth="yes"/>
      <point x="137" y="28"/>
      <point x="104" y="64"/>
      <point x="91" y="131" type="curve"/>
      <point x="93" y="97"/>
      <point x="96" y="58"/>
      <point x="114" y="28" type="curve"/>
      <point x="241" y="750" type="line"/>
      <point x="109" y="750" type="line"/>
      <point x="105" y="720" type="line"/>
      <point x="111" y="718" type="line" smooth="yes"/>
      <point x="141.0" y="708"/>
      <point x="155" y="702"/>
      <point x="150" y="674" type="curve" smooth="yes"/>
      <point x="42" y="61" type="line"/>
      <point x="70" y="20"/>
      <point x="124" y="-10"/>
    </contour>
  </outline>
</glyph>
<glyph name="d" format="2">
  <advance width="432"/>
  <unicode hex="0064"/>
  <anchor x="525" y="735" name="right"/>
  <anchor x="191" y="0" name="bottom"/>
  <outline>
    <contour>
      <point x="279" y="113" type="line"/>
      <point x="258" y="28"/>
      <point x="286" y="-10.0"/>
      <point x="332" y="-10" type="curve" smooth="yes"/>
      <point x="367" y="-10"/>
      <point x="396" y="10"/>
      <point x="410" y="28" type="curve"/>
      <point x="418" y="60" type="line"/>
      <point x="403" y="45"/>
      <point x="386" y="31"/>
      <point x="367" y="31" type="curve" smooth="yes"/>
      <point x="348" y="31.0"/>
      <point x="341" y="45"/>
      <point x="347" y="79" type="curve"/>
      <point x="463" y="750" type="line"/>
      <point x="331" y="750" type="line"/>
      <point x="327" y="720" type="line"/>
      <point x="333" y="718" type="line" smooth="yes"/>
      <point x="363.0" y="708"/>
      <point x="377" y="702"/>
      <point x="372" y="674" type="curve"/>
      <point x="274" y="123" type="line"/>
    </contour>
    <contour>
      <point x="144" y="-10.0" type="curve" smooth="yes"/>
      <point x="227" y="-10"/>
      <point x="278" y="83"/>
      <point x="328" y="227" type="curve"/>
      <point x="311" y="246" type="line"/>
      <point x="272" y="136"/>
      <point x="226" y="33"/>
      <point x="168" y="33.0" type="curve" smooth="yes"/>
      <point x="138" y="33"/>
      <point x="118" y="61"/>
      <point x="118" y="140" type="curve" smooth="yes"/>
      <point x="118.0" y="295"/>
      <point x="182" y="490"/>
      <point x="271" y="490.0" type="curve" smooth="yes"/>
      <point x="310" y="490"/>
      <point x="350" y="454"/>
      <point x="363" y="387" type="curve"/>
      <point x="377" y="417" type="line"/>
      <point x="364" y="483"/>
      <point x="322" y="528"/>
      <point x="259" y="528.0" type="curve" smooth="yes"/>
      <point x="122" y="528"/>
      <point x="37.0" y="313"/>
      <point x="37" y="160" type="curve" smooth="yes"/>
      <point x="37" y="43"/>
      <point x="85" y="-10"/>
    </contour>
  </outline>
</glyph>
<glyph name="f" format="2">
  <advance width="255"/>
  <unicode hex="0066"/>
  <outline>
    <contour>
      <point x="65" y="518" type="line"/>
      <point x="59" y="486" type="line"/>
      <point x="288" y="486" type="line"/>
      <point x="295" y="518" type="line"/>
    </contour>
    <contour>
      <point x="303" y="725.0" type="curve" smooth="yes"/>
      <point x="326" y="725.0"/>
      <point x="344" y="715"/>
      <point x="358" y="698" type="curve"/>
      <point x="367" y="738" type="line"/>
      <point x="347" y="752"/>
      <point x="327" y="758"/>
      <point x="302" y="758.0" type="curve" smooth="yes"/>
      <point x="222" y="758"/>
      <point x="152" y="697"/>
      <point x="137" y="597" type="curve" smooth="yes"/>
      <point x="13" y="-223" type="line"/>
      <point x="78" y="-223" type="line"/>
      <point x="217" y="598" type="line" smooth="yes"/>
      <point x="232" y="684"/>
      <point x="256" y="725"/>
    </contour>
  </outline>
</glyph>
<glyph name="g" format="2">
  <advance width="411"/>
  <unicode hex="0067"/>
  <anchor x="224" y="518" name="top"/>
  <outline>
    <contour>
      <point x="150" y="-10" type="curve" smooth="yes"/>
      <point x="229" y="-10"/>
      <point x="268" y="85"/>
      <point x="315" y="214" type="curve"/>
      <point x="301" y="233" type="line"/>
      <point x="264" y="127"/>
      <point x="230" y="34"/>
      <point x="173" y="34" type="curve" smooth="yes"/>
      <point x="130" y="34"/>
      <point x="111" y="91"/>
      <point x="115" y="175" type="curve" smooth="yes"/>
      <point x="123" y="318"/>
      <point x="177" y="490"/>
      <point x="260" y="490" type="curve" smooth="yes"/>
      <point x="301" y="490"/>
      <point x="331" y="461"/>
      <point x="355" y="390" type="curve"/>
      <point x="371" y="418" type="line"/>
      <point x="350" y="481"/>
      <point x="312" y="528"/>
      <point x="255" y="528" type="curve" smooth="yes"/>
      <point x="121" y="528"/>
      <point x="42" y="343"/>
      <point x="34" y="188" type="curve" smooth="yes"/>
      <point x="28" y="71"/>
      <point x="73" y="-10"/>
    </contour>
    <contour>
      <point x="255" y="10" type="line" smooth="yes"/>
      <point x="229" y="-133"/>
      <point x="189" y="-196"/>
      <point x="125" y="-196" type="curve" smooth="yes"/>
      <point x="74" y="-196"/>
      <point x="40" y="-166"/>
      <point x="35" y="-128" type="curve"/>
      <point x="25" y="-159"/>
      <point x="29" y="-177"/>
      <point x="52" y="-179" type="curve"/>
      <point x="71" y="-69" type="line"/>
      <point x="0" y="-69" type="line"/>
      <point x="-15" y="-149" type="line"/>
      <point x="5" y="-191"/>
      <point x="56" y="-229"/>
      <point x="125" y="-229" type="curve" smooth="yes"/>
      <point x="233" y="-229"/>
      <point x="306" y="-142"/>
      <point x="334" y="11" type="curve" smooth="yes"/>
      <point x="423" y="522" type="line"/>
      <point x="386" y="522" type="line"/>
      <point x="346" y="464" type="line"/>
      <point x="334" y="461" type="line"/>
    </contour>
  </outline>
</glyph>
<glyph name="i" format="2">
  <advance width="214"/>
  <unicode hex="0069"/>
  <anchor x="137" y="518" name="top"/>
  <anchor x="152" y="-10" name="right"/>
  <anchor x="107" y="-10" name="bottom"/>
  <outline>
    <contour>
      <point x="115" y="442" type="curve" smooth="yes"/>
      <point x="55" y="104" type="line" smooth="yes"/>
      <point x="41" y="24"/>
      <point x="69" y="-10"/>
      <point x="115" y="-10" type="curve" smooth="yes"/>
      <point x="150" y="-10"/>
      <point x="179" y="10"/>
      <point x="193" y="28" type="curve"/>
      <point x="201" y="60" type="line"/>
      <point x="186" y="45"/>
      <point x="169" y="31"/>
      <point x="150" y="31" type="curve" smooth="yes"/>
      <point x="129" y="31"/>
      <point x="125" y="48"/>
      <point x="130" y="79" type="curve" smooth="yes"/>
      <point x="206" y="518" type="line"/>
      <point x="74" y="518" type="line"/>
      <point x="70" y="488" type="line"/>
      <point x="76" y="486" type="line" smooth="yes"/>
      <point x="106.0" y="476"/>
      <point x="120" y="470"/>
    </contour>
    <contour>
      <point x="191.0" y="640" type="curve" smooth="yes"/>
      <point x="221" y="640"/>
      <point x="244" y="660"/>
      <point x="244" y="692" type="curve" smooth="yes"/>
      <point x="244" y="724"/>
      <point x="221" y="742"/>
      <point x="191.0" y="742" type="curve" smooth="yes"/>
      <point x="162" y="742"/>
      <point x="139" y="724"/>
      <point x="139" y="692" type="curve" smooth="yes"/>
      <point x="139" y="660"/>
      <point x="162" y="640"/>
    </contour>
  </outline>
</glyph>
<glyph name="o" format="2">
  <advance width="390"/>
  <unicode hex="006F"/>
  <anchor x="221" y="518" name="top"/>
  <anchor x="293" y="0" name="right"/>
  <anchor x="194" y="0" name="bottom"/>
  <outline>
    <contour>
      <point x="243" y="528" type="curve" smooth="yes"/>
      <point x="112.0" y="528.0"/>
      <point x="36" y="361"/>
      <point x="36" y="204" type="curve" smooth="yes"/>
      <point x="36" y="77"/>
      <point x="85" y="-10"/>
      <point x="178" y="-10" type="curve" smooth="yes"/>
      <point x="309.0" y="-10.0"/>
      <point x="385" y="157"/>
      <point x="385" y="314" type="curve" smooth="yes"/>
      <point x="385" y="441"/>
      <point x="336" y="528"/>
    </contour>
    <contour>
      <point x="179" y="23" type="curve" smooth="yes"/>
      <point x="135.0" y="23"/>
      <point x="117" y="70"/>
      <point x="117.0" y="163" type="curve" smooth="yes"/>
      <point x="117" y="289"/>
      <point x="150" y="495"/>
      <point x="242" y="495" type="curve" smooth="yes"/>
      <point x="286.0" y="495.0"/>
      <point x="304" y="448"/>
      <point x="304.0" y="355.0" type="curve" smooth="yes"/>
      <point x="304" y="229"/>
      <point x="271" y="23"/>
    </contour>
  </outline>
</glyph>
<glyph name="p" format="2">
  <advance width="431"/>
  <unicode hex="0070"/>
  <outline>
    <contour>
      <point x="-56" y="-223" type="line"/>
      <point x="134" y="-223" type="line"/>
      <point x="140" y="-193" type="line"/>
      <point x="132" y="-193" type="line" smooth="yes"/>
      <point x="127" y="-193"/>
      <point x="83" y="-191"/>
      <point x="83" y="-182" type="curve" smooth="yes"/>
      <point x="184" y="384" type="line"/>
      <point x="179" y="386" type="line"/>
      <point x="202" y="518" type="line"/>
      <point x="74" y="518" type="line"/>
      <point x="70" y="488" type="line"/>
      <point x="76" y="486" type="line" smooth="yes"/>
      <point x="106.0" y="476"/>
      <point x="120" y="470"/>
      <point x="115" y="442" type="curve" smooth="yes"/>
      <point x="9" y="-159" type="line" smooth="yes"/>
      <point x="5" y="-183"/>
      <point x="-16" y="-193"/>
      <point x="-49" y="-193" type="curve"/>
      <point x="-50" y="-193" type="line"/>
    </contour>
    <contour>
      <point x="316.0" y="528.0" type="curve" smooth="yes"/>
      <point x="233" y="528"/>
      <point x="182" y="435"/>
      <point x="132" y="291" type="curve"/>
      <point x="149" y="272" type="line"/>
      <point x="188" y="382"/>
      <point x="234" y="485"/>
      <point x="292.0" y="485.0" type="curve" smooth="yes"/>
      <point x="322" y="485"/>
      <point x="342" y="457"/>
      <point x="342" y="378" type="curve" smooth="yes"/>
      <point x="342.0" y="223.0"/>
      <point x="278" y="28"/>
      <point x="189.0" y="28.0" type="curve" smooth="yes"/>
      <point x="150" y="28"/>
      <point x="110" y="64"/>
      <point x="97" y="131" type="curve"/>
      <point x="83" y="101" type="line"/>
      <point x="96" y="35"/>
      <point x="138" y="-10"/>
      <point x="201.0" y="-10.0" type="curve" smooth="yes"/>
      <point x="338" y="-10"/>
      <point x="423.0" y="205.0"/>
      <point x="423" y="358" type="curve" smooth="yes"/>
      <point x="423" y="475"/>
      <point x="375" y="528"/>
    </contour>
  </outline>
</glyph>
<glyph name="r" format="2">
  <advance width="286"/>
  <unicode hex="0072"/>
  <anchor x="176" y="518" name="top"/>
  <anchor x="97" y="0" name="bottom"/>
  <outline>
    <contour>
      <point x="37" y="0" type="line"/>
      <point x="116" y="0" type="line"/>
      <point x="179" y="357" type="line"/>
      <point x="174" y="357" type="line"/>
      <point x="202" y="518" type="line"/>
      <point x="74" y="518" type="line"/>
      <point x="70" y="488" type="line"/>
      <point x="76" y="486" type="line" smooth="yes"/>
      <point x="106.0" y="476"/>
      <point x="120" y="470"/>
      <point x="115" y="442" type="curve" smooth="yes"/>
    </contour>
    <contour>
      <point x="323" y="522" type="line"/>
      <point x="318" y="526"/>
      <point x="311" y="528"/>
      <point x="302" y="528.0" type="curve" smooth="yes"/>
      <point x="251" y="528"/>
      <point x="200" y="462"/>
      <point x="161" y="328" type="curve"/>
      <point x="166" y="299" type="line"/>
      <point x="209" y="420"/>
      <point x="235" y="447"/>
      <point x="274" y="447.0" type="curve" smooth="yes"/>
      <point x="287" y="447"/>
      <point x="296" y="443"/>
      <point x="307" y="436" type="curve"/>
    </contour>
  </outline>
</glyph>
<glyph name="t" format="2">
  <advance width="260"/>
  <unicode hex="0074"/>
  <anchor x="126" y="675" name="top"/>
  <anchor x="261" y="681" name="right"/>
  <anchor x="178" y="0" name="bottom"/>
  <outline>
    <contour>
      <point x="139" y="-10.0" type="curve" smooth="yes"/>
      <point x="179" y="-10"/>
      <point x="205" y="11"/>
      <point x="217" y="24" type="curve"/>
      <point x="224" y="61" type="line"/>
      <point x="211" y="47"/>
      <point x="192" y="31"/>
      <point x="166" y="31" type="curve" smooth="yes"/>
      <point x="130" y="31"/>
      <point x="126" y="61"/>
      <point x="138" y="130" type="curve" smooth="yes"/>
      <point x="229" y="648" type="line"/>
      <point x="175" y="648" type="line"/>
      <point x="158" y="587" type="line" smooth="yes"/>
      <point x="142" y="529"/>
      <point x="119" y="513"/>
      <point x="77" y="513" type="curve" smooth="yes"/>
      <point x="75" y="513" type="line"/>
      <point x="70" y="486" type="line"/>
      <point x="284" y="486" type="line"/>
      <point x="290" y="518" type="line"/>
      <point x="140" y="518" type="line"/>
      <point x="124" y="502" type="line"/>
      <point x="57" y="121" type="line" smooth="yes"/>
      <point x="41" y="32"/>
      <point x="82" y="-10.0"/>
    </contour>
  </outline>
</glyph>
<glyph name="w" format="2">
  <advance width="570"/>
  <unicode hex="0077"/>
  <guideline x="165" y="518" angle="271.35106508271963" identifier="HGszhgbaxk"/>
  <guideline x="379" y="518" angle="270.4182099414971" identifier="2zIODFC9jR"/>
  <guideline x="172" y="65" angle="0" identifier="7zo5vNKHv1"/>
  <anchor x="315" y="518" name="top"/>
  <outline>
    <contour>
      <point x="307" y="518" type="line"/>
      <point x="290" y="351"/>
      <point x="220" y="170"/>
      <point x="149" y="22" type="curve"/>
      <point x="172" y="19" type="line"/>
      <point x="162" y="518" type="line"/>
      <point x="42" y="518" type="line"/>
      <point x="38" y="488" type="line"/>
      <point x="44" y="486" type="line" smooth="yes"/>
      <point x="76" y="477"/>
      <point x="89" y="468"/>
      <point x="89" y="424" type="curve" smooth="yes"/>
      <point x="99" y="0" type="line"/>
      <point x="167" y="0" type="line"/>
      <point x="224" y="106"/>
      <point x="283" y="246"/>
      <point x="319" y="410" type="curve"/>
      <point x="309" y="411" type="line"/>
      <point x="312" y="0" type="line"/>
      <point x="380" y="0" type="line"/>
      <point x="476" y="140"/>
      <point x="565" y="358"/>
      <point x="589" y="518" type="curve"/>
      <point x="589" y="518" type="line"/>
      <point x="522" y="518" type="line"/>
      <point x="519" y="374"/>
      <point x="463" y="176"/>
      <point x="364" y="20" type="curve"/>
      <point x="384" y="20" type="line"/>
      <point x="381" y="518" type="line"/>
    </contour>
  </outline>
</glyph>
<glyph name="cent" format="2">
  <advance width="393"/>
  <unicode hex="00A2"/>
  <outline>
    <contour>
      <point x="186" y="-10" type="curve" smooth="yes"/>
      <point x="255" y="-10"/>
      <point x="314" y="32"/>
      <point x="350" y="134" type="curve"/>
      <point x="329" y="154" type="line"/>
      <point x="310" y="97"/>
      <point x="268" y="27"/>
      <point x="199" y="27" type="curve" smooth="yes"/>
      <point x="141" y="27"/>
      <point x="108" y="91"/>
      <point x="114" y="214" type="curve" smooth="yes"/>
      <point x="122" y="370"/>
      <point x="183" y="495"/>
      <point x="267" y="495" type="curve" smooth="yes"/>
      <point x="295" y="495"/>
      <point x="330" y="486"/>
      <point x="342" y="447" type="curve"/>
      <point x="346" y="463"/>
      <point x="342" y="475"/>
      <point x="333" y="484" type="curve"/>
      <point x="313" y="369" type="line"/>
      <point x="374" y="369" type="line"/>
      <point x="392" y="469" type="line"/>
      <point x="380" y="486"/>
      <point x="342" y="528"/>
      <point x="271" y="528" type="curve" smooth="yes"/>
      <point x="143" y="528"/>
      <point x="47" y="396"/>
      <point x="38" y="226" type="curve" smooth="yes"/>
      <point x="30" y="70"/>
      <point x="98" y="-10"/>
    </contour>
    <contour>
      <point x="138" y="-126" type="line"/>
      <point x="166" y="-126" type="line"/>
      <point x="189" y="-2" type="line"/>
      <point x="189" y="2" type="line"/>
      <point x="278" y="506" type="line"/>
      <point x="279" y="515" type="line"/>
      <point x="299" y="624" type="line"/>
      <point x="271" y="624" type="line"/>
      <point x="252" y="516" type="line"/>
      <point x="249" y="504" type="line"/>
      <point x="162" y="6" type="line"/>
      <point x="161" y="-1" type="line"/>
    </contour>
  </outline>
</glyph>
<glyph name="copyright" format="2">
  <advance width="593"/>
  <unicode hex="00A9"/>
  <outline>
    <contour>
      <point x="333" y="531" type="curve" smooth="yes"/>
      <point x="387" y="531"/>
      <point x="415" y="479"/>
      <point x="425" y="414" type="curve"/>
      <point x="443" y="414" type="line"/>
      <point x="450" y="552" type="line"/>
      <point x="432" y="552" type="line"/>
      <point x="417" y="467" type="line"/>
      <point x="431" y="455" type="line"/>
      <point x="425" y="522"/>
      <point x="380" y="563"/>
      <point x="327" y="563" type="curve" smooth="yes"/>
      <point x="247" y="563"/>
      <point x="178" y="476"/>
      <point x="172" y="354" type="curve" smooth="yes"/>
      <point x="165" y="231"/>
      <point x="223" y="147"/>
      <point x="308" y="147" type="curve" smooth="yes"/>
      <point x="376" y="147"/>
      <point x="427" y="215"/>
      <point x="445" y="295" type="curve"/>
      <point x="425" y="306" type="line"/>
      <point x="408" y="235"/>
      <point x="371" y="179"/>
      <point x="314" y="179" type="curve" smooth="yes"/>
      <point x="260" y="179"/>
      <point x="229" y="246"/>
      <point x="235" y="354" type="curve" smooth="yes"/>
      <point x="241" y="471"/>
      <point x="282" y="531"/>
    </contour>
    <contour>
      <point x="80" y="355" type="curve" smooth="yes"/>
      <point x="90" y="551"/>
      <point x="198" y="705"/>
      <point x="336" y="705" type="curve" smooth="yes"/>
      <point x="475" y="705"/>
      <point x="567" y="551"/>
      <point x="557" y="355" type="curve" smooth="yes"/>
      <point x="546" y="159"/>
      <point x="438" y="5"/>
      <point x="299" y="5" type="curve" smooth="yes"/>
      <point x="161" y="5"/>
      <point x="69" y="159"/>
    </contour>
    <contour>
      <point x="49" y="355" type="curve" smooth="yes"/>
      <point x="37" y="138"/>
      <point x="145" y="-29"/>
      <point x="297" y="-29" type="curve" smooth="yes"/>
      <point x="451" y="-29"/>
      <point x="576" y="138"/>
      <point x="588" y="355" type="curve" smooth="yes"/>
      <point x="599" y="572"/>
      <point x="492" y="739"/>
      <point x="338" y="739" type="curve" smooth="yes"/>
      <point x="186" y="739"/>
      <point x="60" y="572"/>
    </contour>
  </outline>
</glyph>
<glyph name="ordfeminine" format="2">
  <advance width="339"/>
  <unicode hex="00AA"/>
  <outline>
    <contour>
      <point x="294" y="310" type="curve" smooth="yes"/>
      <point x="318" y="310"/>
      <point x="340" y="325"/>
      <point x="351" y="336" type="curve"/>
      <point x="356" y="366" type="line"/>
      <point x="346" y="357"/>
      <point x="333" y="344"/>
      <point x="319" y="344" type="curve" smooth="yes"/>
      <point x="306" y="344"/>
      <point x="301" y="350"/>
      <point x="302" y="367" type="curve" smooth="yes"/>
      <point x="303" y="375"/>
      <point x="303" y="383"/>
      <point x="308" y="415" type="curve" smooth="yes"/>
      <point x="362" y="716" type="line"/>
      <point x="323" y="716" type="line"/>
      <point x="289" y="675" type="line"/>
      <point x="283" y="673" type="line"/>
      <point x="237" y="411" type="line"/>
      <point x="242" y="412" type="line"/>
      <point x="239" y="410"/>
      <point x="237" y="387"/>
      <point x="237" y="377" type="curve" smooth="yes"/>
      <point x="234" y="331"/>
      <point x="257" y="310"/>
    </contour>
    <contour>
      <point x="145" y="310" type="curve" smooth="yes"/>
      <point x="204" y="310"/>
      <point x="237" y="389"/>
      <point x="277" y="491" type="curve"/>
      <point x="264" y="508" type="line"/>
      <point x="234" y="425"/>
      <point x="206" y="347"/>
      <point x="162" y="347" type="curve" smooth="yes"/>
      <point x="142" y="347"/>
      <point x="130" y="381"/>
      <point x="134" y="452" type="curve" smooth="yes"/>
      <point x="140" y="563"/>
      <point x="178" y="691"/>
      <point x="237" y="691" type="curve" smooth="yes"/>
      <point x="269" y="691"/>
      <point x="288" y="663"/>
      <point x="303" y="610" type="curve"/>
      <point x="316" y="635" type="line"/>
      <point x="302" y="685"/>
      <point x="275" y="720"/>
      <point x="234" y="720" type="curve" smooth="yes"/>
      <point x="130" y="720"/>
      <point x="67" y="580"/>
      <point x="61" y="461" type="curve" smooth="yes"/>
      <point x="56" y="364"/>
      <point x="94" y="310"/>
    </contour>
  </outline>
</glyph>
<glyph name="registered" format="2">
  <advance width="593"/>
  <unicode hex="00AE"/>
  <outline>
    <contour>
      <point x="297" y="-29" type="curve" smooth="yes"/>
      <point x="145" y="-29"/>
      <point x="37" y="138"/>
      <point x="49" y="355" type="curve" smooth="yes"/>
      <point x="60" y="572"/>
      <point x="186" y="739"/>
      <point x="338" y="739" type="curve" smooth="yes"/>
      <point x="492" y="739"/>
      <point x="599" y="572"/>
      <point x="588" y="355" type="curve" smooth="yes"/>
      <point x="576" y="138"/>
      <point x="451" y="-29"/>
    </contour>
    <contour>
      <point x="185" y="153" type="line"/>
      <point x="312" y="153" type="line"/>
      <point x="313" y="180" type="line"/>
      <point x="310" y="180" type="line" smooth="yes"/>
      <point x="298" y="180"/>
      <point x="283" y="182"/>
      <point x="283" y="186" type="curve" smooth="yes"/>
      <point x="290" y="321" type="line"/>
      <point x="317" y="321" type="line" smooth="yes"/>
      <point x="387" y="321"/>
      <point x="437" y="368"/>
      <point x="441" y="443" type="curve" smooth="yes"/>
      <point x="445" y="515"/>
      <point x="403" y="557"/>
      <point x="332" y="557" type="curve" smooth="yes"/>
      <point x="206" y="557" type="line"/>
      <point x="205" y="529" type="line"/>
      <point x="209" y="529" type="line" smooth="yes"/>
      <point x="227" y="529"/>
      <point x="241" y="525"/>
      <point x="240" y="509" type="curve" smooth="yes"/>
      <point x="223" y="200" type="line" smooth="yes"/>
      <point x="223" y="184"/>
      <point x="208" y="180"/>
      <point x="190" y="180" type="curve" smooth="yes"/>
      <point x="186" y="180" type="line"/>
    </contour>
    <contour>
      <point x="328" y="526" type="line" smooth="yes"/>
      <point x="365" y="526"/>
      <point x="383" y="502"/>
      <point x="380" y="443" type="curve" smooth="yes"/>
      <point x="377" y="381"/>
      <point x="355" y="351"/>
      <point x="315" y="351" type="curve" smooth="yes"/>
      <point x="291" y="351" type="line"/>
      <point x="301" y="526" type="line"/>
    </contour>
    <contour>
      <point x="299" y="5" type="curve" smooth="yes"/>
      <point x="438" y="5"/>
      <point x="546" y="159"/>
      <point x="557" y="355" type="curve" smooth="yes"/>
      <point x="567" y="551"/>
      <point x="475" y="705"/>
      <point x="336" y="705" type="curve" smooth="yes"/>
      <point x="198" y="705"/>
      <point x="90" y="551"/>
      <point x="80" y="355" type="curve" smooth="yes"/>
      <point x="69" y="159"/>
      <point x="161" y="5"/>
    </contour>
    <contour>
      <point x="316" y="335" type="line"/>
      <point x="364" y="152" type="line"/>
      <point x="445" y="152" type="line"/>
      <point x="446" y="180" type="line"/>
      <point x="441" y="180" type="line" smooth="yes"/>
      <point x="427" y="180"/>
      <point x="420" y="183"/>
      <point x="416" y="196" type="curve" smooth="yes"/>
      <point x="371" y="346" type="line"/>
    </contour>
  </outline>
</glyph>
<glyph name="acute" format="2">
  <advance width="351"/>
  <unicode hex="00B4"/>
  <anchor x="162" y="527" name="_top"/>
  <outline>
    <contour>
      <point x="214" y="706" type="curve" smooth="yes"/>
      <point x="165" y="589" type="line"/>
      <point x="162" y="575" type="line"/>
      <point x="180" y="575" type="line"/>
      <point x="255" y="656" type="line" smooth="yes"/>
      <point x="281" y="683"/>
      <point x="296" y="701"/>
      <point x="297" y="730" type="curve" smooth="yes"/>
      <point x="298" y="753"/>
      <point x="287" y="769"/>
      <point x="268" y="769" type="curve" smooth="yes"/>
      <point x="245" y="769"/>
      <point x="232" y="751"/>
    </contour>
  </outline>
</glyph>
<glyph name="cedilla" format="2">
  <advance width="422"/>
  <unicode hex="00B8"/>
  <anchor x="226" y="34" name="_bottom"/>
  <outline>
    <contour>
      <point x="160" y="-236" type="curve" smooth="yes"/>
      <point x="210" y="-236"/>
      <point x="247" y="-206"/>
      <point x="250" y="-150" type="curve" smooth="yes"/>
      <point x="253" y="-104"/>
      <point x="223" y="-73"/>
      <point x="165" y="-67" type="curve"/>
      <point x="165" y="-80" type="line"/>
      <point x="209" y="4" type="line"/>
      <point x="177" y="4" type="line"/>
      <point x="131" y="-95" type="line"/>
      <point x="146" y="-95" type="line" smooth="yes"/>
      <point x="181" y="-95"/>
      <point x="193" y="-128"/>
      <point x="192" y="-151" type="curve" smooth="yes"/>
      <point x="191" y="-180"/>
      <point x="177" y="-205"/>
      <point x="150" y="-205" type="curve" smooth="yes"/>
      <point x="125" y="-205"/>
      <point x="109" y="-185"/>
      <point x="98" y="-149" type="curve"/>
      <point x="79" y="-168" type="line"/>
      <point x="91" y="-209"/>
      <point x="117" y="-236"/>
    </contour>
  </outline>
</glyph>
<glyph name="multiply" format="2">
  <advance width="393"/>
  <unicode hex="00D7"/>
  <outline>
    <contour>
      <point x="68" y="150" type="line"/>
      <point x="383" y="506" type="line"/>
      <point x="369" y="531" type="line"/>
      <point x="54" y="175" type="line"/>
    </contour>
    <contour>
      <point x="302" y="150" type="line"/>
      <point x="322" y="172" type="line"/>
      <point x="135" y="531" type="line"/>
      <point x="114" y="510" type="line"/>
    </contour>
  </outline>
</glyph>
<glyph name="germandbls" format="2">
  <advance width="419"/>
  <unicode hex="00DF"/>
  <outline>
    <contour>
      <point x="65" y="518" type="line"/>
      <point x="59" y="486" type="line"/>
      <point x="147" y="486" type="line"/>
      <point x="154" y="518" type="line"/>
    </contour>
    <contour>
      <point x="13" y="-223" type="line"/>
      <point x="78" y="-223" type="line"/>
      <point x="216" y="586" type="line" smooth="yes"/>
      <point x="234" y="702"/>
      <point x="266" y="727"/>
      <point x="302" y="727" type="curve" smooth="yes"/>
      <point x="339" y="727"/>
      <point x="356" y="689"/>
      <point x="353" y="625" type="curve" smooth="yes"/>
      <point x="347" y="522"/>
      <point x="306" y="456"/>
      <point x="228" y="438" type="curve"/>
      <point x="223" y="412" type="line"/>
      <point x="295" y="396"/>
      <point x="326" y="327"/>
      <point x="320" y="217" type="curve" smooth="yes"/>
      <point x="314" y="90"/>
      <point x="267" y="22"/>
      <point x="215" y="22" type="curve" smooth="yes"/>
      <point x="187" y="22"/>
      <point x="168" y="40"/>
      <point x="161" y="47" type="curve"/>
      <point x="154" y="11" type="line"/>
      <point x="167" y="1"/>
      <point x="190" y="-10"/>
      <point x="224" y="-10" type="curve" smooth="yes"/>
      <point x="315" y="-10"/>
      <point x="394" y="68"/>
      <point x="401" y="213" type="curve" smooth="yes"/>
      <point x="407" y="324"/>
      <point x="358" y="402"/>
      <point x="258" y="429" type="curve"/>
      <point x="264" y="419" type="line"/>
      <point x="267" y="434" type="line"/>
      <point x="234" y="420" type="line"/>
      <point x="336" y="430"/>
      <point x="424" y="511"/>
      <point x="429" y="612" type="curve" smooth="yes"/>
      <point x="433" y="696"/>
      <point x="392" y="758"/>
      <point x="307" y="758" type="curve" smooth="yes"/>
      <point x="227" y="758"/>
      <point x="156" y="717"/>
      <point x="136" y="584" type="curve" smooth="yes"/>
    </contour>
  </outline>
</glyph>
<glyph name="iogonek" format="2">
  <advance width="214"/>
  <unicode hex="012F"/>
  <outline>
    <contour>
      <point x="176" y="32" type="line"/>
      <point x="77" y="-34"/>
      <point x="9" y="-81"/>
      <point x="5" y="-155" type="curve" smooth="yes"/>
      <point x="2" y="-207"/>
      <point x="33" y="-237"/>
      <point x="76" y="-237" type="curve" smooth="yes"/>
      <point x="114" y="-237"/>
      <point x="140" y="-217"/>
      <point x="159" y="-191" type="curve"/>
      <point x="149" y="-170" type="line"/>
      <point x="137" y="-187"/>
      <point x="123" y="-200"/>
      <point x="104" y="-200" type="curve" smooth="yes"/>
      <point x="86" y="-200"/>
      <point x="71" y="-184"/>
      <point x="73" y="-151" type="curve" smooth="yes"/>
      <point x="76" y="-100"/>
      <point x="100" y="-55"/>
      <point x="183" y="16" type="curve"/>
    </contour>
    <component base="i"/>
  </outline>
</glyph>
<glyph name="Lslash" format="2">
  <advance width="417"/>
  <unicode hex="0141"/>
  <outline>
    <contour>
      <point x="20" y="204" type="line"/>
      <point x="362" y="470" type="line"/>
      <point x="370" y="514" type="line"/>
      <point x="28" y="248" type="line"/>
    </contour>
    <component base="L"/>
  </outline>
</glyph>
<glyph name="Tbar" format="2">
  <advance width="449"/>
  <unicode hex="0166"/>
  <outline>
    <contour>
      <point x="107" y="370" type="line"/>
      <point x="101" y="337" type="line"/>
      <point x="387" y="337" type="line"/>
      <point x="392" y="370" type="line"/>
    </contour>
    <component base="T"/>
  </outline>
</glyph>
<glyph name="Schwa" format="2">
  <advance width="497"/>
  <unicode hex="018F"/>
  <outline>
    <contour>
      <point x="218" y="-10" type="curve" smooth="yes"/>
      <point x="357" y="-10"/>
      <point x="488" y="167"/>
      <point x="501" y="412" type="curve" smooth="yes"/>
      <point x="511" y="613"/>
      <point x="428" y="720"/>
      <point x="303" y="720" type="curve" smooth="yes"/>
      <point x="208" y="720"/>
      <point x="136" y="657"/>
      <point x="89" y="569" type="curve"/>
      <point x="109" y="545" type="line"/>
      <point x="147" y="617"/>
      <point x="209" y="684"/>
      <point x="293" y="684" type="curve" smooth="yes"/>
      <point x="373" y="684"/>
      <point x="424" y="611"/>
      <point x="414" y="428" type="curve" smooth="yes"/>
      <point x="401" y="181"/>
      <point x="318" y="26"/>
      <point x="222" y="26" type="curve" smooth="yes"/>
      <point x="157" y="26"/>
      <point x="113" y="81"/>
      <point x="122" y="242" type="curve" smooth="yes"/>
      <point x="123" y="275"/>
      <point x="128" y="308"/>
      <point x="136" y="343" type="curve"/>
      <point x="111" y="330" type="line"/>
      <point x="445" y="330" type="line"/>
      <point x="454" y="367" type="line"/>
      <point x="53" y="367" type="line"/>
      <point x="46" y="331"/>
      <point x="42" y="306"/>
      <point x="40" y="266" type="curve" smooth="yes"/>
      <point x="31" y="97"/>
      <point x="90" y="-10"/>
    </contour>
  </outline>
</glyph>
<glyph name="ohorn" format="2">
  <advance width="410"/>
  <unicode hex="01A1"/>
  <anchor x="214" y="518" name="top"/>
  <outline>
    <contour>
      <point x="187" y="-10" type="curve" smooth="yes"/>
      <point x="309" y="-10"/>
      <point x="396" y="134"/>
      <point x="404" y="286" type="curve" smooth="yes"/>
      <point x="410" y="392"/>
      <point x="373" y="470"/>
      <point x="313" y="505" type="curve"/>
      <point x="340" y="471" type="line"/>
      <point x="345" y="494" type="line"/>
      <point x="308" y="493" type="line"/>
      <point x="315" y="488"/>
      <point x="328" y="485"/>
      <point x="337" y="485" type="curve" smooth="yes"/>
      <point x="406" y="485"/>
      <point x="455" y="526"/>
      <point x="480" y="660" type="curve"/>
      <point x="419" y="660" type="line"/>
      <point x="400" y="576"/>
      <point x="384" y="516"/>
      <point x="334" y="516" type="curve" smooth="yes"/>
      <point x="308" y="516"/>
      <point x="286" y="528"/>
      <point x="252" y="528" type="curve" smooth="yes"/>
      <point x="132" y="528"/>
      <point x="44" y="384"/>
      <point x="36" y="233" type="curve" smooth="yes"/>
      <point x="29" y="89"/>
      <point x="88" y="-10"/>
    </contour>
    <contour>
      <point x="188" y="23" type="curve"/>
      <point x="138" y="23"/>
      <point x="111" y="85"/>
      <point x="118" y="205" type="curve" smooth="yes"/>
      <point x="120" y="246"/>
      <point x="125" y="291"/>
      <point x="135" y="332" type="curve" smooth="yes"/>
      <point x="156" y="422"/>
      <point x="194" y="495"/>
      <point x="251" y="495" type="curve"/>
      <point x="302" y="495"/>
      <point x="329" y="433"/>
      <point x="322" y="313" type="curve" smooth="yes"/>
      <point x="320" y="272"/>
      <point x="314" y="227"/>
      <point x="305" y="186" type="curve" smooth="yes"/>
      <point x="284" y="97"/>
      <point x="246" y="23"/>
    </contour>
  </outline>
</glyph>
<glyph name="Uhorn" format="2">
  <advance width="553"/>
  <unicode hex="01AF"/>
  <anchor x="282" y="663" name="top"/>
  <outline>
    <contour>
      <point x="245" y="-10" type="curve" smooth="yes"/>
      <point x="344" y="-10"/>
      <point x="419" y="63"/>
      <point x="450" y="238" type="curve" smooth="yes"/>
      <point x="520" y="636" type="line" smooth="yes"/>
      <point x="526" y="669"/>
      <point x="539" y="679"/>
      <point x="561" y="685" type="curve" smooth="yes"/>
      <point x="625" y="704"/>
      <point x="661" y="732"/>
      <point x="689" y="839" type="curve"/>
      <point x="627" y="839" type="line"/>
      <point x="606" y="742"/>
      <point x="589" y="710"/>
      <point x="497" y="710" type="curve" smooth="yes"/>
      <point x="437" y="710" type="line"/>
      <point x="432" y="679" type="line"/>
      <point x="446" y="679" type="line" smooth="yes"/>
      <point x="480" y="679"/>
      <point x="495" y="672"/>
      <point x="492" y="655" type="curve" smooth="yes"/>
      <point x="421" y="244" type="line" smooth="yes"/>
      <point x="396" y="102"/>
      <point x="341" y="42"/>
      <point x="267" y="42" type="curve" smooth="yes"/>
      <point x="190" y="42"/>
      <point x="154" y="99"/>
      <point x="159" y="198" type="curve" smooth="yes"/>
      <point x="161" y="223"/>
      <point x="163" y="251"/>
      <point x="170" y="290" type="curve" smooth="yes"/>
      <point x="236" y="669" type="line" smooth="yes"/>
      <point x="237" y="676"/>
      <point x="267" y="679"/>
      <point x="290" y="679" type="curve" smooth="yes"/>
      <point x="295" y="679" type="line"/>
      <point x="300" y="710" type="line"/>
      <point x="103" y="710" type="line"/>
      <point x="99" y="679" type="line"/>
      <point x="103" y="679" type="line" smooth="yes"/>
      <point x="129" y="679"/>
      <point x="154" y="673"/>
      <point x="150" y="648" type="curve" smooth="yes"/>
      <point x="89" y="297" type="line" smooth="yes"/>
      <point x="82" y="258"/>
      <point x="78" y="231"/>
      <point x="77" y="202" type="curve" smooth="yes"/>
      <point x="69" y="51"/>
      <point x="143" y="-10"/>
    </contour>
  </outline>
</glyph>
<glyph name="oogonek" format="2">
  <advance width="409"/>
  <unicode hex="01EB"/>
  <outline>
    <contour>
      <point x="173" y="-237" type="curve" smooth="yes"/>
      <point x="212" y="-237"/>
      <point x="238" y="-217"/>
      <point x="256" y="-191" type="curve"/>
      <point x="247" y="-170" type="line"/>
      <point x="235" y="-187"/>
      <point x="220" y="-200"/>
      <point x="202" y="-200" type="curve" smooth="yes"/>
      <point x="184" y="-200"/>
      <point x="169" y="-184"/>
      <point x="171" y="-151" type="curve" smooth="yes"/>
      <point x="174" y="-97"/>
      <point x="194" y="-52"/>
      <point x="283" y="21" type="curve" smooth="yes"/>
      <point x="353" y="78"/>
      <point x="398" y="178"/>
      <point x="404" y="286" type="curve" smooth="yes"/>
      <point x="411" y="429"/>
      <point x="353" y="528"/>
      <point x="252" y="528" type="curve" smooth="yes"/>
      <point x="132" y="528"/>
      <point x="44" y="384"/>
      <point x="36" y="233" type="curve" smooth="yes"/>
      <point x="29" y="89"/>
      <point x="88" y="-10"/>
      <point x="187" y="-10" type="curve" smooth="yes"/>
      <point x="207" y="-10"/>
      <point x="226" y="-6"/>
      <point x="243" y="1" type="curve"/>
      <point x="245" y="13" type="line"/>
      <point x="159" y="-41"/>
      <point x="106" y="-89"/>
      <point x="103" y="-155" type="curve" smooth="yes"/>
      <point x="100" y="-207"/>
      <point x="130" y="-237"/>
    </contour>
    <contour>
      <point x="188" y="23" type="curve"/>
      <point x="138" y="23"/>
      <point x="111" y="85"/>
      <point x="118" y="205" type="curve" smooth="yes"/>
      <point x="120" y="246"/>
      <point x="125" y="291"/>
      <point x="135" y="332" type="curve" smooth="yes"/>
      <point x="156" y="422"/>
      <point x="194" y="495"/>
      <point x="251" y="495" type="curve"/>
      <point x="303" y="495"/>
      <point x="330" y="433"/>
      <point x="323" y="313" type="curve" smooth="yes"/>
      <point x="321" y="272"/>
      <point x="316" y="227"/>
      <point x="306" y="186" type="curve" smooth="yes"/>
      <point x="285" y="97"/>
      <point x="247" y="23"/>
    </contour>
  </outline>
</glyph>
<glyph name="hungarumlaut" format="2">
  <advance width="351"/>
  <unicode hex="02DD"/>
  <anchor x="192" y="525" name="_top"/>
  <outline>
    <contour>
      <point x="180" y="703" type="curve" smooth="yes"/>
      <point x="147" y="589" type="line"/>
      <point x="145" y="575" type="line"/>
      <point x="163" y="575" type="line"/>
      <point x="227" y="665" type="line" smooth="yes"/>
      <point x="248" y="690"/>
      <point x="257" y="709"/>
      <point x="258" y="732" type="curve" smooth="yes"/>
      <point x="260" y="754"/>
      <point x="248" y="771"/>
      <point x="230" y="771" type="curve" smooth="yes"/>
      <point x="208" y="771"/>
      <point x="194" y="752"/>
    </contour>
    <contour>
      <point x="293" y="703" type="curve" smooth="yes"/>
      <point x="260" y="589" type="line"/>
      <point x="258" y="575" type="line"/>
      <point x="276" y="575" type="line"/>
      <point x="339" y="665" type="line" smooth="yes"/>
      <point x="361" y="690"/>
      <point x="371" y="709"/>
      <point x="372" y="732" type="curve" smooth="yes"/>
      <point x="374" y="754"/>
      <point x="361" y="771"/>
      <point x="343" y="771" type="curve" smooth="yes"/>
      <point x="321" y="771"/>
      <point x="308" y="752"/>
    </contour>
  </outline>
</glyph>
<glyph name="endash" format="2">
  <advance width="398"/>
  <unicode hex="2013"/>
  <outline>
    <contour>
      <point x="58" y="336" type="line"/>
      <point x="51" y="297" type="line"/>
      <point x="371" y="297" type="line"/>
      <point x="378" y="336" type="line"/>
    </contour>
  </outline>
</glyph>
<glyph name="emdash" format="2">
  <advance width="636"/>
  <unicode hex="2014"/>
  <outline>
    <contour>
      <point x="58" y="336" type="line"/>
      <point x="51" y="297" type="line"/>
      <point x="608" y="297" type="line"/>
      <point x="616" y="336" type="line"/>
    </contour>
  </outline>
</glyph>
<glyph name="dong" format="2">
  <advance width="393"/>
  <unicode hex="20AB"/>
  <outline>
    <contour>
      <point x="130" y="-10" type="curve" smooth="yes"/>
      <point x="200" y="-10"/>
      <point x="242" y="78"/>
      <point x="286" y="199" type="curve"/>
      <point x="273" y="219" type="line"/>
      <point x="239" y="120"/>
      <point x="203" y="33"/>
      <point x="153" y="33" type="curve" smooth="yes"/>
      <point x="116" y="33"/>
      <point x="101" y="90"/>
      <point x="105" y="174" type="curve" smooth="yes"/>
      <point x="107" y="204"/>
      <point x="110" y="235"/>
      <point x="116" y="267" type="curve" smooth="yes"/>
      <point x="137" y="385"/>
      <point x="182" y="490"/>
      <point x="245" y="490" type="curve" smooth="yes"/>
      <point x="286" y="490"/>
      <point x="310" y="465"/>
      <point x="332" y="399" type="curve"/>
      <point x="348" y="427" type="line"/>
      <point x="329" y="485"/>
      <point x="295" y="528"/>
      <point x="242" y="528" type="curve" smooth="yes"/>
      <point x="110" y="528"/>
      <point x="35" y="343"/>
      <point x="27" y="188" type="curve" smooth="yes"/>
      <point x="21" y="70"/>
      <point x="61" y="-10"/>
    </contour>
    <contour>
      <point x="301" y="-10" type="curve" smooth="yes"/>
      <point x="329" y="-10"/>
      <point x="354" y="8"/>
      <point x="367" y="23" type="curve"/>
      <point x="374" y="55" type="line"/>
      <point x="364" y="46"/>
      <point x="349" y="31"/>
      <point x="332" y="31" type="curve" smooth="yes"/>
      <point x="317" y="31"/>
      <point x="310" y="41"/>
      <point x="311" y="66" type="curve" smooth="yes"/>
      <point x="312" y="75"/>
      <point x="313" y="85"/>
      <point x="316" y="96" type="curve" smooth="yes"/>
      <point x="429" y="750" type="line"/>
      <point x="354" y="750" type="line"/>
      <point x="246" y="135" type="line"/>
      <point x="250" y="136" type="line"/>
      <point x="246" y="116"/>
      <point x="244" y="99"/>
      <point x="243" y="83" type="curve" smooth="yes"/>
      <point x="240" y="18"/>
      <point x="262" y="-10"/>
    </contour>
    <contour>
      <point x="17" y="-159" type="line"/>
      <point x="326" y="-159" type="line"/>
      <point x="332" y="-126" type="line"/>
      <point x="23" y="-126" type="line"/>
    </contour>
    <contour>
      <point x="200" y="608" type="line"/>
      <point x="465" y="608" type="line"/>
      <point x="472" y="641" type="line"/>
      <point x="206" y="641" type="line"/>
    </contour>
  </outline>
</glyph>
<glyph name="guarani" format="2">
  <advance width="393"/>
  <unicode hex="20B2"/>
  <outline>
    <contour>
      <point x="283" y="790" type="line"/>
      <point x="266" y="686" type="line"/>
      <point x="263" y="675" type="line"/>
      <point x="151" y="37" type="line"/>
      <point x="148" y="26" type="line"/>
      <point x="123" y="-120" type="line"/>
      <point x="152" y="-120" type="line"/>
      <point x="177" y="25" type="line"/>
      <point x="178" y="36" type="line"/>
      <point x="291" y="677" type="line"/>
      <point x="293" y="684" type="line"/>
      <point x="312" y="790" type="line"/>
    </contour>
    <contour>
      <point x="190" y="9" type="curve" smooth="yes"/>
      <point x="249" y="9"/>
      <point x="305" y="46"/>
      <point x="332" y="83" type="curve"/>
      <point x="368" y="286" type="line" smooth="yes"/>
      <point x="374" y="321"/>
      <point x="386" y="326"/>
      <point x="402" y="326" type="curve" smooth="yes"/>
      <point x="408" y="326" type="line"/>
      <point x="412" y="351" type="line"/>
      <point x="287" y="351" type="line"/>
      <point x="282" y="326" type="line"/>
      <point x="286" y="326" type="line" smooth="yes"/>
      <point x="298" y="325"/>
      <point x="307" y="320"/>
      <point x="301" y="287" type="curve" smooth="yes"/>
      <point x="263" y="68" type="line"/>
      <point x="250" y="56"/>
      <point x="226" y="40"/>
      <point x="196" y="40" type="curve" smooth="yes"/>
      <point x="133" y="40"/>
      <point x="101" y="119"/>
      <point x="110" y="291" type="curve" smooth="yes"/>
      <point x="113" y="336"/>
      <point x="118" y="382"/>
      <point x="126" y="425" type="curve" smooth="yes"/>
      <point x="152" y="566"/>
      <point x="201" y="670"/>
      <point x="283" y="670" type="curve" smooth="yes"/>
      <point x="333" y="670"/>
      <point x="374" y="637"/>
      <point x="382" y="607" type="curve"/>
      <point x="397" y="632"/>
      <point x="386" y="653"/>
      <point x="360" y="660" type="curve"/>
      <point x="337" y="533" type="line"/>
      <point x="407" y="533" type="line"/>
      <point x="425" y="635" type="line"/>
      <point x="403" y="666"/>
      <point x="358" y="701"/>
      <point x="286" y="701" type="curve" smooth="yes"/>
      <point x="142" y="701"/>
      <point x="43" y="526"/>
      <point x="31" y="301" type="curve" smooth="yes"/>
      <point x="21" y="118"/>
      <point x="93" y="9"/>
    </contour>
  </outline>
</glyph>
<glyph name="cedi" format="2">
  <advance width="393"/>
  <unicode hex="20B5"/>
  <outline>
    <contour>
      <point x="295" y="670" type="curve" smooth="yes"/>
      <point x="346" y="670"/>
      <point x="381" y="638"/>
      <point x="392" y="604" type="curve"/>
      <point x="401" y="633"/>
      <point x="390" y="651"/>
      <point x="368" y="656" type="curve"/>
      <point x="347" y="534" type="line"/>
      <point x="416" y="534" type="line"/>
      <point x="434" y="630" type="line"/>
      <point x="422" y="656"/>
      <point x="367" y="701"/>
      <point x="295" y="701" type="curve" smooth="yes"/>
      <point x="140" y="701"/>
      <point x="44" y="504"/>
      <point x="34" y="305" type="curve" smooth="yes"/>
      <point x="23" y="104"/>
      <point x="104" y="9"/>
      <point x="200" y="9" type="curve" smooth="yes"/>
      <point x="282" y="9"/>
      <point x="346" y="88"/>
      <point x="385" y="218" type="curve"/>
      <point x="366" y="234" type="line"/>
      <point x="329" y="110"/>
      <point x="273" y="41"/>
      <point x="208" y="41" type="curve" smooth="yes"/>
      <point x="137" y="41"/>
      <point x="103" y="118"/>
      <point x="112" y="291" type="curve" smooth="yes"/>
      <point x="115" y="339"/>
      <point x="120" y="386"/>
      <point x="131" y="430" type="curve" smooth="yes"/>
      <point x="157" y="567"/>
      <point x="209" y="670"/>
    </contour>
    <contour>
      <point x="298" y="790" type="line"/>
      <point x="281" y="686" type="line"/>
      <point x="279" y="675" type="line"/>
      <point x="166" y="37" type="line"/>
      <point x="164" y="26" type="line"/>
      <point x="139" y="-120" type="line"/>
      <point x="168" y="-120" type="line"/>
      <point x="193" y="25" type="line"/>
      <point x="194" y="36" type="line"/>
      <point x="307" y="677" type="line"/>
      <point x="309" y="684" type="line"/>
      <point x="327" y="790" type="line"/>
    </contour>
  </outline>
</glyph>
<glyph name="ruble" format="2">
  <advance width="393"/>
  <unicode hex="20BD"/>
  <outline>
    <contour>
      <point x="278" y="188" type="line"/>
      <point x="25" y="188" type="line"/>
      <point x="31" y="221" type="line"/>
      <point x="285" y="221" type="line"/>
    </contour>
    <contour>
      <point x="58" y="374" type="line"/>
      <point x="233" y="374" type="line" smooth="yes"/>
      <point x="302" y="374"/>
      <point x="345" y="426"/>
      <point x="360" y="506" type="curve" smooth="yes"/>
      <point x="363" y="520"/>
      <point x="364" y="534"/>
      <point x="365" y="547" type="curve" smooth="yes"/>
      <point x="369" y="631"/>
      <point x="341" y="677"/>
      <point x="279" y="677" type="curve" smooth="yes"/>
      <point x="244" y="677" type="line"/>
      <point x="135" y="55" type="line"/>
      <point x="133" y="35"/>
      <point x="162" y="31"/>
      <point x="185" y="31" type="curve" smooth="yes"/>
      <point x="197" y="31" type="line"/>
      <point x="191" y="0" type="line"/>
      <point x="-9" y="0" type="line"/>
      <point x="-4" y="31" type="line"/>
      <point x="1" y="31" type="line" smooth="yes"/>
      <point x="26" y="31"/>
      <point x="53" y="38"/>
      <point x="57" y="64" type="curve" smooth="yes"/>
      <point x="160" y="645" type="line" smooth="yes"/>
      <point x="164" y="671"/>
      <point x="140" y="679"/>
      <point x="115" y="679" type="curve" smooth="yes"/>
      <point x="111" y="679" type="line"/>
      <point x="115" y="710" type="line"/>
      <point x="283" y="710" type="line" smooth="yes"/>
      <point x="391" y="710"/>
      <point x="449" y="648"/>
      <point x="443" y="540" type="curve" smooth="yes"/>
      <point x="437" y="427"/>
      <point x="358" y="341"/>
      <point x="231" y="341" type="curve" smooth="yes"/>
      <point x="51" y="341" type="line"/>
    </contour>
  </outline>
</glyph>
<glyph name="trademark" format="2">
  <advance width="588"/>
  <unicode hex="2122"/>
  <outline>
    <contour>
      <point x="111" y="394" type="line"/>
      <point x="219" y="394" type="line"/>
      <point x="223" y="413" type="line"/>
      <point x="216" y="413" type="line" smooth="yes"/>
      <point x="203" y="413"/>
      <point x="194" y="417"/>
      <point x="197" y="430" type="curve" smooth="yes"/>
      <point x="241" y="688" type="line"/>
      <point x="262" y="688" type="line" smooth="yes"/>
      <point x="288" y="688"/>
      <point x="298" y="683"/>
      <point x="296" y="667" type="curve" smooth="yes"/>
      <point x="292" y="619" type="line"/>
      <point x="306" y="619" type="line"/>
      <point x="323" y="710" type="line"/>
      <point x="119" y="710" type="line"/>
      <point x="103" y="619" type="line"/>
      <point x="117" y="619" type="line"/>
      <point x="131" y="667" type="line" smooth="yes"/>
      <point x="135" y="683"/>
      <point x="147" y="688"/>
      <point x="172" y="688" type="curve" smooth="yes"/>
      <point x="193" y="688" type="line"/>
      <point x="148" y="430" type="line" smooth="yes"/>
      <point x="145" y="417"/>
      <point x="135" y="413"/>
      <point x="122" y="413" type="curve" smooth="yes"/>
      <point x="116" y="413" type="line"/>
    </contour>
    <contour>
      <point x="294" y="394" type="line"/>
      <point x="362" y="394" type="line"/>
      <point x="366" y="413" type="line"/>
      <point x="364" y="413" type="line" smooth="yes"/>
      <point x="358" y="413"/>
      <point x="344" y="416"/>
      <point x="345" y="418" type="curve" smooth="yes"/>
      <point x="394" y="702" type="line"/>
      <point x="390" y="701" type="line"/>
      <point x="403" y="393" type="line"/>
      <point x="440" y="393" type="line"/>
      <point x="564" y="701" type="line"/>
      <point x="558" y="701" type="line"/>
      <point x="508" y="418" type="line" smooth="yes"/>
      <point x="508" y="416"/>
      <point x="496" y="413"/>
      <point x="489" y="413" type="curve" smooth="yes"/>
      <point x="487" y="413" type="line"/>
      <point x="482" y="394" type="line"/>
      <point x="580" y="394" type="line"/>
      <point x="585" y="413" type="line"/>
      <point x="580" y="413" type="line" smooth="yes"/>
      <point x="567" y="413"/>
      <point x="557" y="417"/>
      <point x="561" y="430" type="curve" smooth="yes"/>
      <point x="603" y="674" type="line" smooth="yes"/>
      <point x="605" y="688"/>
      <point x="615" y="690"/>
      <point x="628" y="690" type="curve" smooth="yes"/>
      <point x="633" y="690" type="line"/>
      <point x="637" y="710" type="line"/>
      <point x="545" y="710" type="line"/>
      <point x="440" y="439" type="line"/>
      <point x="446" y="438" type="line"/>
      <point x="439" y="710" type="line"/>
      <point x="349" y="710" type="line"/>
      <point x="346" y="690" type="line"/>
      <point x="350" y="690" type="line" smooth="yes"/>
      <point x="362" y="690"/>
      <point x="372" y="688"/>
      <point x="370" y="674" type="curve" smooth="yes"/>
      <point x="328" y="430" type="line" smooth="yes"/>
      <point x="324" y="417"/>
      <point x="314" y="413"/>
      <point x="301" y="413" type="curve"/>
      <point x="297" y="413" type="line"/>
    </contour>
  </outline>
</glyph>
<glyph name="arrowleft" format="2">
  <advance width="520"/>
  <unicode hex="2190"/>
  <outline>
    <contour>
      <point x="295" y="560" type="line"/>
      <point x="58" y="360" type="line"/>
      <point x="57" y="346" type="line"/>
      <point x="274" y="146" type="line"/>
      <point x="281" y="159" type="line"/>
      <point x="171" y="335" type="line"/>
      <point x="499" y="335" type="line"/>
      <point x="500" y="371" type="line"/>
      <point x="172" y="371" type="line"/>
      <point x="302" y="547" type="line"/>
    </contour>
  </outline>
</glyph>
<glyph name="radical" format="2">
  <advance width="422"/>
  <unicode hex="221A"/>
  <outline>
    <contour>
      <point x="54" y="334" type="line"/>
      <point x="153" y="334" type="line"/>
      <point x="115" y="342" type="line"/>
      <point x="140" y="0" type="line"/>
      <point x="193" y="0" type="line"/>
      <point x="211" y="45" type="line"/>
      <point x="193" y="373" type="line"/>
      <point x="61" y="373" type="line"/>
    </contour>
    <contour>
      <point x="453" y="710" type="line"/>
      <point x="172" y="0" type="line"/>
      <point x="200" y="0" type="line"/>
      <point x="484" y="710" type="line"/>
    </contour>
  </outline>
</glyph>
<glyph name="uni25BF" format="2">
  <advance width="439"/>
  <unicode hex="25BF"/>
  <outline>
    <contour>
      <point x="431" y="464" type="line"/>
      <point x="55" y="464" type="line"/>
      <point x="224" y="91" type="line"/>
    </contour>
    <contour>
      <point x="370" y="414" type="line"/>
      <point x="366" y="430" type="line"/>
      <point x="225" y="175" type="line"/>
      <point x="233" y="175" type="line"/>
      <point x="119" y="430" type="line"/>
      <point x="114" y="414" type="line"/>
    </contour>
  </outline>
</glyph>
<glyph name="zero.den" format="2">
  <advance width="233"/>
  <unicode hex="E402"/>
  <outline>
    <contour>
      <point x="147" y="147" type="curve" smooth="yes"/>
      <point x="134" y="80"/>
      <point x="115" y="20"/>
      <point x="84" y="20" type="curve" smooth="yes"/>
      <point x="63" y="20"/>
      <point x="56" y="53"/>
      <point x="59" y="122" type="curve" smooth="yes"/>
      <point x="60" y="141"/>
      <point x="63" y="165"/>
      <point x="68" y="191" type="curve" smooth="yes"/>
      <point x="81" y="259"/>
      <point x="100" y="323"/>
      <point x="131" y="323" type="curve" smooth="yes"/>
      <point x="153" y="323"/>
      <point x="160" y="289"/>
      <point x="157" y="220" type="curve" smooth="yes"/>
      <point x="155" y="200"/>
      <point x="152" y="174"/>
    </contour>
    <contour>
      <point x="216" y="200" type="curve" smooth="yes"/>
      <point x="220" y="275"/>
      <point x="196" y="349"/>
      <point x="132" y="349" type="curve" smooth="yes"/>
      <point x="47" y="349"/>
      <point x="5" y="229"/>
      <point x="0" y="143" type="curve" smooth="yes"/>
      <point x="-3" y="68"/>
      <point x="20" y="-6"/>
      <point x="84" y="-6" type="curve" smooth="yes"/>
      <point x="170" y="-6"/>
      <point x="212" y="114"/>
    </contour>
  </outline>
</glyph>
<glyph name="f_f" format="2">
  <advance width="468"/>
  <unicode hex="FB00"/>
  <outline>
    <contour>
      <point x="65" y="518" type="line"/>
      <point x="59" y="486" type="line"/>
      <point x="284" y="486" type="line"/>
      <point x="291" y="518" type="line"/>
    </contour>
    <contour>
      <point x="302" y="715" type="curve" smooth="yes"/>
      <point x="319" y="715"/>
      <point x="332" y="710"/>
      <point x="340" y="705" type="curve"/>
      <point x="346" y="738" type="line"/>
      <point x="337" y="743"/>
      <point x="320" y="748"/>
      <point x="300" y="748" type="curve" smooth="yes"/>
      <point x="221" y="748"/>
      <point x="151" y="692"/>
      <point x="133" y="569" type="curve" smooth="yes"/>
      <point x="13" y="-223" type="line"/>
      <point x="78" y="-223" type="line"/>
      <point x="216" y="587" type="line" smooth="yes"/>
      <point x="230" y="677"/>
      <point x="252" y="715"/>
    </contour>
    <contour>
      <point x="278" y="518" type="line"/>
      <point x="272" y="486" type="line"/>
      <point x="500" y="486" type="line"/>
      <point x="506" y="518" type="line"/>
    </contour>
    <contour>
      <point x="515" y="725" type="curve" smooth="yes"/>
      <point x="538" y="725"/>
      <point x="557" y="713"/>
      <point x="570" y="696" type="curve"/>
      <point x="579" y="738" type="line"/>
      <point x="559" y="752"/>
      <point x="539" y="758"/>
      <point x="515" y="758" type="curve" smooth="yes"/>
      <point x="435" y="758"/>
      <point x="366" y="695"/>
      <point x="348" y="584" type="curve" smooth="yes"/>
      <point x="228" y="-193" type="line"/>
      <point x="294" y="-193" type="line"/>
      <point x="427" y="585" type="line" smooth="yes"/>
      <point x="444" y="682"/>
      <point x="469" y="725"/>
    </contour>
  </outline>
</glyph>
<glyph name="acute.pl" format="2">
  <advance width="351"/>
  <anchor x="164" y="489" name="_top"/>
  <outline>
    <contour>
      <point x="196" y="699" type="curve" smooth="yes"/>
      <point x="173" y="588" type="line"/>
      <point x="171" y="575" type="line"/>
      <point x="189" y="575" type="line"/>
      <point x="237" y="653" type="line" smooth="yes"/>
      <point x="261" y="683"/>
      <point x="271" y="707"/>
      <point x="272" y="732" type="curve" smooth="yes"/>
      <point x="274" y="756"/>
      <point x="261" y="771"/>
      <point x="244" y="771" type="curve" smooth="yes"/>
      <point x="218" y="771"/>
      <point x="206" y="748"/>
    </contour>
  </outline>
</glyph>
<glyph name="acute.uc" format="2">
  <advance width="351"/>
  <anchor x="160" y="727" name="_top"/>
  <outline>
    <contour>
      <point x="231" y="871" type="curve" smooth="yes"/>
      <point x="172" y="779" type="line"/>
      <point x="169" y="766" type="line"/>
      <point x="184" y="766" type="line"/>
      <point x="258" y="810" type="line" smooth="yes"/>
      <point x="291" y="828"/>
      <point x="311" y="848"/>
      <point x="313" y="877" type="curve" smooth="yes"/>
      <point x="314" y="898"/>
      <point x="304" y="918"/>
      <point x="283" y="918" type="curve" smooth="yes"/>
      <point x="262" y="918"/>
      <point x="250" y="900"/>
    </contour>
  </outline>
</glyph>
<glyph name="backslash.uc" format="2">
  <advance width="278"/>
  <outline>
    <contour>
      <point x="110" y="750" type="line"/>
      <point x="215" y="-39" type="line"/>
      <point x="187" y="-39" type="line"/>
      <point x="82" y="750" type="line"/>
    </contour>
  </outline>
</glyph>
<glyph name="blackdiamond" format="2">
  <advance width="437"/>
  <outline>
    <contour>
      <point x="418" y="313" type="line"/>
      <point x="248" y="574" type="line"/>
      <point x="52" y="313" type="line"/>
      <point x="221" y="52" type="line"/>
    </contour>
  </outline>
</glyph>
<glyph name="circumflex.uc" format="2">
  <advance width="351"/>
  <anchor x="195" y="694" name="_top"/>
  <outline>
    <contour>
      <point x="300" y="905" type="line"/>
      <point x="353" y="768" type="line"/>
      <point x="352" y="758" type="line"/>
      <point x="332" y="758" type="line"/>
      <point x="248" y="854" type="line"/>
      <point x="269" y="854" type="line"/>
      <point x="155" y="758" type="line"/>
      <point x="132" y="758" type="line"/>
      <point x="134" y="768" type="line"/>
      <point x="233" y="905" type="line"/>
    </contour>
  </outline>
</glyph>
<glyph name="circumflex_hook" format="2">
  <advance width="359"/>
  <anchor x="175" y="559" name="_top"/>
  <outline>
    <contour>
      <point x="293" y="807" type="line"/>
      <point x="304" y="853"/>
      <point x="330" y="881"/>
      <point x="381" y="881" type="curve" smooth="yes"/>
      <point x="431" y="881"/>
      <point x="457" y="854"/>
      <point x="455" y="813" type="curve" smooth="yes"/>
      <point x="453" y="775"/>
      <point x="424" y="742"/>
      <point x="359" y="732" type="curve"/>
      <point x="374" y="752" type="line"/>
      <point x="366" y="703" type="line"/>
      <point x="338" y="703" type="line"/>
      <point x="349" y="756" type="line"/>
      <point x="380" y="761"/>
      <point x="398" y="779"/>
      <point x="399" y="808" type="curve" smooth="yes"/>
      <point x="401" y="832"/>
      <point x="394" y="850"/>
      <point x="375" y="850" type="curve" smooth="yes"/>
      <point x="353" y="850"/>
      <point x="342" y="832"/>
      <point x="336" y="807" type="curve"/>
    </contour>
    <component base="circumflex" xOffset="-1"/>
  </outline>
</glyph>
<glyph name="commaaccent" format="2">
  <advance width="351"/>
  <anchor x="182" y="33" name="_bottom"/>
  <outline>
    <contour>
      <point x="108" y="-306" type="line"/>
      <point x="151" y="-271"/>
      <point x="192" y="-214"/>
      <point x="195" y="-150" type="curve" smooth="yes"/>
      <point x="197" y="-109"/>
      <point x="178" y="-88"/>
      <point x="151" y="-88" type="curve" smooth="yes"/>
      <point x="124" y="-88"/>
      <point x="105" y="-112"/>
      <point x="104" y="-143" type="curve" smooth="yes"/>
      <point x="102" y="-177"/>
      <point x="122" y="-197"/>
      <point x="145" y="-197" type="curve" smooth="yes"/>
      <point x="162" y="-197"/>
      <point x="175" y="-182"/>
      <point x="178" y="-161" type="curve"/>
      <point x="174" y="-161"/>
      <point x="171" y="-164"/>
      <point x="170" y="-170" type="curve"/>
      <point x="155" y="-213"/>
      <point x="126" y="-247"/>
      <point x="74" y="-272" type="curve"/>
    </contour>
  </outline>
</glyph>
<glyph name="dieresis.uc" format="2">
  <advance width="351"/>
  <anchor x="199" y="694" name="_top"/>
  <outline>
    <contour>
      <point x="171" y="792" type="curve" smooth="yes"/>
      <point x="199" y="792"/>
      <point x="220" y="815"/>
      <point x="222" y="854" type="curve" smooth="yes"/>
      <point x="224" y="892"/>
      <point x="205" y="915"/>
      <point x="177" y="915" type="curve" smooth="yes"/>
      <point x="149" y="915"/>
      <point x="128" y="892"/>
      <point x="126" y="854" type="curve" smooth="yes"/>
      <point x="124" y="815"/>
      <point x="143" y="792"/>
    </contour>
    <contour>
      <point x="325" y="792" type="curve" smooth="yes"/>
      <point x="353" y="792"/>
      <point x="374" y="815"/>
      <point x="376" y="854" type="curve" smooth="yes"/>
      <point x="378" y="892"/>
      <point x="359" y="915"/>
      <point x="331" y="915" type="curve" smooth="yes"/>
      <point x="303" y="915"/>
      <point x="282" y="892"/>
      <point x="280" y="854" type="curve" smooth="yes"/>
      <point x="278" y="815"/>
      <point x="297" y="792"/>
    </contour>
  </outline>
</glyph>
<glyph name="eight.midprop" format="2">
  <advance width="412"/>
  <outline>
    <contour>
      <point x="197" y="23" type="curve" smooth="yes"/>
      <point x="136" y="23"/>
      <point x="101" y="81"/>
      <point x="107" y="187" type="curve" smooth="yes"/>
      <point x="108" y="202"/>
      <point x="110" y="217"/>
      <point x="113" y="232" type="curve" smooth="yes"/>
      <point x="128" y="309"/>
      <point x="170" y="361"/>
      <point x="225" y="361" type="curve" smooth="yes"/>
      <point x="287" y="361"/>
      <point x="317" y="301"/>
      <point x="312" y="218" type="curve" smooth="yes"/>
      <point x="311" y="199"/>
      <point x="309" y="181"/>
      <point x="306" y="163" type="curve" smooth="yes"/>
      <point x="290" y="79"/>
      <point x="253" y="23"/>
    </contour>
    <contour>
      <point x="254" y="391" type="curve" smooth="yes"/>
      <point x="205" y="391"/>
      <point x="179" y="440"/>
      <point x="184" y="526" type="curve" smooth="yes"/>
      <point x="184" y="543"/>
      <point x="185" y="560"/>
      <point x="188" y="576" type="curve" smooth="yes"/>
      <point x="202" y="647"/>
      <point x="235" y="687"/>
      <point x="279" y="687" type="curve" smooth="yes"/>
      <point x="326" y="687"/>
      <point x="354" y="640"/>
      <point x="349" y="554" type="curve" smooth="yes"/>
      <point x="348" y="537"/>
      <point x="345" y="521"/>
      <point x="343" y="506" type="curve" smooth="yes"/>
      <point x="330" y="435"/>
      <point x="294" y="391"/>
    </contour>
    <contour>
      <point x="195" y="-10" type="curve" smooth="yes"/>
      <point x="311" y="-10"/>
      <point x="388" y="84"/>
      <point x="394" y="197" type="curve" smooth="yes"/>
      <point x="399" y="294"/>
      <point x="353" y="357"/>
      <point x="280" y="378" type="curve"/>
      <point x="288" y="365" type="line"/>
      <point x="294" y="379" type="line"/>
      <point x="276" y="369" type="line"/>
      <point x="365" y="380"/>
      <point x="419" y="450"/>
      <point x="424" y="545" type="curve" smooth="yes"/>
      <point x="429" y="648"/>
      <point x="370" y="720"/>
      <point x="280" y="720" type="curve" smooth="yes"/>
      <point x="184" y="720"/>
      <point x="114" y="643"/>
      <point x="108" y="542" type="curve" smooth="yes"/>
      <point x="104" y="461"/>
      <point x="141" y="398"/>
      <point x="201" y="376" type="curve"/>
      <point x="192" y="390" type="line"/>
      <point x="187" y="375" type="line"/>
      <point x="204" y="386" type="line"/>
      <point x="103" y="379"/>
      <point x="31" y="308"/>
      <point x="25" y="194" type="curve" smooth="yes"/>
      <point x="19" y="72"/>
      <point x="93" y="-10"/>
    </contour>
  </outline>
</glyph>
<glyph name="eight.oldtab" format="2">
  <advance width="393"/>
  <outline>
    <contour>
      <point x="192" y="23" type="curve" smooth="yes"/>
      <point x="135" y="23"/>
      <point x="102" y="81"/>
      <point x="108" y="187" type="curve" smooth="yes"/>
      <point x="109" y="202"/>
      <point x="110" y="216"/>
      <point x="114" y="231" type="curve" smooth="yes"/>
      <point x="129" y="309"/>
      <point x="168" y="361"/>
      <point x="219" y="361" type="curve" smooth="yes"/>
      <point x="276" y="361"/>
      <point x="305" y="301"/>
      <point x="300" y="218" type="curve" smooth="yes"/>
      <point x="299" y="199"/>
      <point x="296" y="181"/>
      <point x="293" y="163" type="curve" smooth="yes"/>
      <point x="278" y="79"/>
      <point x="242" y="23"/>
    </contour>
    <contour>
      <point x="248" y="391" type="curve" smooth="yes"/>
      <point x="203" y="391"/>
      <point x="179" y="440"/>
      <point x="184" y="526" type="curve" smooth="yes"/>
      <point x="184" y="543"/>
      <point x="186" y="560"/>
      <point x="190" y="576" type="curve" smooth="yes"/>
      <point x="203" y="647"/>
      <point x="232" y="687"/>
      <point x="273" y="687" type="curve" smooth="yes"/>
      <point x="316" y="687"/>
      <point x="341" y="640"/>
      <point x="336" y="554" type="curve" smooth="yes"/>
      <point x="335" y="537"/>
      <point x="333" y="521"/>
      <point x="330" y="506" type="curve" smooth="yes"/>
      <point x="317" y="435"/>
      <point x="285" y="391"/>
    </contour>
    <contour>
      <point x="189" y="-10" type="curve" smooth="yes"/>
      <point x="301" y="-10"/>
      <point x="375" y="84"/>
      <point x="381" y="197" type="curve" smooth="yes"/>
      <point x="386" y="292"/>
      <point x="344" y="353"/>
      <point x="278" y="376" type="curve"/>
      <point x="281" y="364" type="line"/>
      <point x="285" y="378" type="line"/>
      <point x="276" y="370" type="line"/>
      <point x="358" y="384"/>
      <point x="406" y="453"/>
      <point x="411" y="545" type="curve" smooth="yes"/>
      <point x="416" y="648"/>
      <point x="360" y="720"/>
      <point x="275" y="720" type="curve" smooth="yes"/>
      <point x="183" y="720"/>
      <point x="115" y="643"/>
      <point x="109" y="542" type="curve" smooth="yes"/>
      <point x="105" y="462"/>
      <point x="139" y="400"/>
      <point x="195" y="377" type="curve"/>
      <point x="192" y="389" type="line"/>
      <point x="188" y="374" type="line"/>
      <point x="197" y="385" type="line"/>
      <point x="101" y="379"/>
      <point x="32" y="308"/>
      <point x="26" y="194" type="curve" smooth="yes"/>
      <point x="20" y="72"/>
      <point x="91" y="-10"/>
    </contour>
  </outline>
</glyph>
<glyph name="f.alt" format="2">
  <advance width="255"/>
  <outline>
    <contour>
      <point x="65" y="518" type="line"/>
      <point x="59" y="486" type="line"/>
      <point x="288" y="486" type="line"/>
      <point x="295" y="518" type="line"/>
    </contour>
    <contour>
      <point x="299" y="758" type="curve" smooth="yes"/>
      <point x="220" y="758"/>
      <point x="153" y="695"/>
      <point x="136" y="584" type="curve" smooth="yes"/>
      <point x="13" y="-223" type="line"/>
      <point x="78" y="-223" type="line"/>
      <point x="216" y="586" type="line" smooth="yes"/>
      <point x="231" y="683"/>
      <point x="254" y="725"/>
      <point x="298" y="725" type="curve" smooth="yes"/>
      <point x="321" y="725"/>
      <point x="340" y="710"/>
      <point x="350" y="679" type="curve"/>
      <point x="363" y="688"/>
      <point x="351" y="718"/>
      <point x="335" y="720" type="curve"/>
      <point x="318" y="632" type="line"/>
      <point x="378" y="632" type="line"/>
      <point x="392" y="711" type="line"/>
      <point x="378" y="735"/>
      <point x="342" y="758"/>
    </contour>
  </outline>
</glyph>
<glyph name="f.short" format="2">
  <advance width="248"/>
  <outline>
    <contour>
      <point x="65" y="518" type="line"/>
      <point x="59" y="486" type="line"/>
      <point x="279" y="486" type="line"/>
      <point x="286" y="518" type="line"/>
    </contour>
    <contour>
      <point x="78" y="-223" type="line"/>
      <point x="216" y="585" type="line" smooth="yes"/>
      <point x="231" y="682"/>
      <point x="249" y="725"/>
      <point x="294" y="725" type="curve" smooth="yes"/>
      <point x="317" y="725"/>
      <point x="331" y="717"/>
      <point x="345" y="708" type="curve"/>
      <point x="353" y="743" type="line"/>
      <point x="340" y="751"/>
      <point x="318" y="758"/>
      <point x="294" y="758" type="curve" smooth="yes"/>
      <point x="216" y="758"/>
      <point x="152" y="695"/>
      <point x="136" y="584" type="curve" smooth="yes"/>
      <point x="13" y="-223" type="line"/>
    </contour>
  </outline>
</glyph>
<glyph name="f_f.short" format="2">
  <advance width="460"/>
  <outline>
    <contour>
      <point x="278" y="518" type="line"/>
      <point x="272" y="486" type="line"/>
      <point x="491" y="486" type="line"/>
      <point x="498" y="518" type="line"/>
    </contour>
    <contour>
      <point x="291" y="-223" type="line"/>
      <point x="427" y="585" type="line" smooth="yes"/>
      <point x="444" y="682"/>
      <point x="461" y="725"/>
      <point x="506" y="725" type="curve" smooth="yes"/>
      <point x="529" y="725"/>
      <point x="544" y="717"/>
      <point x="558" y="708" type="curve"/>
      <point x="566" y="743" type="line"/>
      <point x="552" y="751"/>
      <point x="530" y="758"/>
      <point x="506" y="758" type="curve" smooth="yes"/>
      <point x="428" y="758"/>
      <point x="364" y="695"/>
      <point x="348" y="584" type="curve" smooth="yes"/>
      <point x="225" y="-223" type="line"/>
    </contour>
    <contour>
      <point x="65" y="518" type="line"/>
      <point x="59" y="486" type="line"/>
      <point x="284" y="486" type="line"/>
      <point x="291" y="518" type="line"/>
    </contour>
    <contour>
      <point x="78" y="-223" type="line"/>
      <point x="216" y="587" type="line" smooth="yes"/>
      <point x="230" y="677"/>
      <point x="252" y="715"/>
      <point x="302" y="715" type="curve" smooth="yes"/>
      <point x="319" y="715"/>
      <point x="332" y="710"/>
      <point x="340" y="705" type="curve"/>
      <point x="346" y="738" type="line"/>
      <point x="337" y="743"/>
      <point x="320" y="748"/>
      <point x="300" y="748" type="curve" smooth="yes"/>
      <point x="221" y="748"/>
      <point x="151" y="692"/>
      <point x="133" y="569" type="curve" smooth="yes"/>
      <point x="13" y="-223" type="line"/>
    </contour>
  </outline>
</glyph>
<glyph name="f_j" format="2">
  <advance width="415"/>
  <outline>
    <contour>
      <point x="406" y="638" type="curve" smooth="yes"/>
      <point x="435" y="638"/>
      <point x="457" y="662"/>
      <point x="459" y="701" type="curve" smooth="yes"/>
      <point x="461" y="739"/>
      <point x="442" y="763"/>
      <point x="413" y="763" type="curve" smooth="yes"/>
      <point x="384" y="763"/>
      <point x="362" y="739"/>
      <point x="360" y="701" type="curve" smooth="yes"/>
      <point x="358" y="662"/>
      <point x="377" y="638"/>
    </contour>
    <contour>
      <point x="293" y="725" type="curve" smooth="yes"/>
      <point x="305" y="725"/>
      <point x="316" y="721"/>
      <point x="323" y="716" type="curve"/>
      <point x="329" y="751" type="line"/>
      <point x="322" y="755"/>
      <point x="303" y="758"/>
      <point x="288" y="758" type="curve" smooth="yes"/>
      <point x="220" y="758"/>
      <point x="155" y="706"/>
      <point x="139" y="607" type="curve" smooth="yes"/>
      <point x="13" y="-223" type="line"/>
      <point x="78" y="-223" type="line"/>
      <point x="220" y="608" type="line" smooth="yes"/>
      <point x="232" y="690"/>
      <point x="254" y="725"/>
    </contour>
    <contour>
      <point x="226" y="-112" type="line" smooth="yes"/>
      <point x="216" y="-164"/>
      <point x="199" y="-202"/>
      <point x="170" y="-202" type="curve" smooth="yes"/>
      <point x="157" y="-202"/>
      <point x="144" y="-198"/>
      <point x="134" y="-189" type="curve"/>
      <point x="128" y="-221" type="line"/>
      <point x="139" y="-229"/>
      <point x="157" y="-236"/>
      <point x="178" y="-236" type="curve" smooth="yes"/>
      <point x="244" y="-236"/>
      <point x="291" y="-194"/>
      <point x="311" y="-82" type="curve" smooth="yes"/>
      <point x="415" y="518" type="line"/>
      <point x="65" y="518" type="line"/>
      <point x="59" y="486" type="line"/>
      <point x="265" y="486" type="line" smooth="yes"/>
      <point x="311" y="486"/>
      <point x="328" y="470"/>
      <point x="323" y="441" type="curve" smooth="yes"/>
    </contour>
  </outline>
</glyph>
<glyph name="f_k" format="2">
  <advance width="609"/>
  <outline>
    <contour>
      <point x="65" y="518" type="line"/>
      <point x="59" y="486" type="line"/>
      <point x="282" y="486" type="line"/>
      <point x="288" y="518" type="line"/>
    </contour>
    <contour>
      <point x="462" y="328" type="line"/>
      <point x="501" y="154" type="line" smooth="yes"/>
      <point x="522" y="50"/>
      <point x="529" y="31"/>
      <point x="555" y="31" type="curve" smooth="yes"/>
      <point x="567" y="31"/>
      <point x="579" y="39"/>
      <point x="592" y="52" type="curve"/>
      <point x="585" y="20" type="line"/>
      <point x="570" y="3"/>
      <point x="544" y="-10"/>
      <point x="517" y="-10" type="curve" smooth="yes"/>
      <point x="469" y="-10"/>
      <point x="449" y="17"/>
      <point x="426" y="133" type="curve" smooth="yes"/>
      <point x="397" y="283" type="line"/>
      <point x="398" y="288" type="line"/>
      <point x="480" y="364"/>
      <point x="532" y="434"/>
      <point x="573" y="518" type="curve"/>
      <point x="640" y="518" type="line"/>
      <point x="640" y="513" type="line"/>
      <point x="594" y="437"/>
      <point x="518" y="370"/>
      <point x="424" y="279" type="curve"/>
    </contour>
    <contour>
      <point x="325" y="0" type="line"/>
      <point x="457" y="750" type="line"/>
      <point x="324" y="750" type="line"/>
      <point x="375" y="724" type="line"/>
      <point x="247" y="0" type="line"/>
    </contour>
    <contour>
      <point x="316" y="725" type="curve" smooth="yes"/>
      <point x="351" y="725"/>
      <point x="379" y="706"/>
      <point x="397" y="680" type="curve"/>
      <point x="425" y="725" type="line"/>
      <point x="402" y="745"/>
      <point x="362" y="758"/>
      <point x="316" y="758" type="curve" smooth="yes"/>
      <point x="221" y="758"/>
      <point x="152" y="695"/>
      <point x="136" y="584" type="curve" smooth="yes"/>
      <point x="13" y="-223" type="line"/>
      <point x="78" y="-223" type="line"/>
      <point x="216" y="585" type="line" smooth="yes"/>
      <point x="231" y="683"/>
      <point x="257" y="725"/>
    </contour>
  </outline>
</glyph>
<glyph name="five.lintab" format="2">
  <advance width="393"/>
  <outline>
    <contour>
      <point x="162" y="-10" type="curve" smooth="yes"/>
      <point x="281" y="-10"/>
      <point x="360" y="114"/>
      <point x="368" y="259" type="curve" smooth="yes"/>
      <point x="374" y="385"/>
      <point x="324" y="472"/>
      <point x="234" y="472" type="curve" smooth="yes"/>
      <point x="190" y="472"/>
      <point x="140" y="450"/>
      <point x="102" y="388" type="curve"/>
      <point x="111" y="389" type="line"/>
      <point x="158" y="659" type="line"/>
      <point x="142" y="624" type="line"/>
      <point x="376" y="624" type="line"/>
      <point x="402" y="710" type="line"/>
      <point x="141" y="710" type="line"/>
      <point x="75" y="344" type="line"/>
      <point x="98" y="344" type="line"/>
      <point x="128" y="402"/>
      <point x="163" y="438"/>
      <point x="213" y="438" type="curve" smooth="yes"/>
      <point x="267" y="438"/>
      <point x="295" y="377"/>
      <point x="289" y="260" type="curve" smooth="yes"/>
      <point x="282" y="126"/>
      <point x="233" y="23"/>
      <point x="159" y="23" type="curve" smooth="yes"/>
      <point x="82" y="23"/>
      <point x="48" y="88"/>
      <point x="36" y="171" type="curve"/>
      <point x="12" y="152" type="line"/>
      <point x="26" y="60"/>
      <point x="72" y="-10"/>
    </contour>
  </outline>
</glyph>
<glyph name="five.oldprop" format="2">
  <advance width="394"/>
  <outline>
    <contour>
      <point x="6" y="-2" type="curve"/>
      <point x="29" y="18" type="line"/>
      <point x="42" y="-55"/>
      <point x="78" y="-116"/>
      <point x="153" y="-116" type="curve" smooth="yes"/>
      <point x="229" y="-116"/>
      <point x="274" y="-30"/>
      <point x="281" y="103" type="curve" smooth="yes"/>
      <point x="287" y="209"/>
      <point x="263" y="268"/>
      <point x="209" y="268" type="curve" smooth="yes"/>
      <point x="157" y="268"/>
      <point x="121" y="233"/>
      <point x="90" y="174" type="curve"/>
      <point x="67" y="174" type="line"/>
      <point x="134" y="548" type="line"/>
      <point x="396" y="548" type="line"/>
      <point x="369" y="462" type="line"/>
      <point x="135" y="462" type="line"/>
      <point x="151" y="497" type="line"/>
      <point x="104" y="220" type="line"/>
      <point x="96" y="221" type="line"/>
      <point x="134" y="282"/>
      <point x="182" y="302"/>
      <point x="227" y="302" type="curve" smooth="yes"/>
      <point x="316" y="302"/>
      <point x="367" y="216"/>
      <point x="361" y="102" type="curve" smooth="yes"/>
      <point x="354" y="-37"/>
      <point x="276" y="-149"/>
      <point x="156" y="-149" type="curve" smooth="yes"/>
      <point x="67" y="-149"/>
      <point x="21" y="-82"/>
    </contour>
  </outline>
</glyph>
<glyph name="four.oldtab" format="2">
  <advance width="393"/>
  <outline>
    <contour>
      <point x="-1" y="57" type="line"/>
      <point x="360" y="57" type="line"/>
      <point x="371" y="120" type="line"/>
      <point x="35" y="120" type="line"/>
      <point x="29" y="90" type="line"/>
      <point x="329" y="540" type="line"/>
      <point x="334" y="548" type="line"/>
      <point x="304" y="548" type="line"/>
      <point x="10" y="111" type="line"/>
    </contour>
    <contour>
      <point x="257" y="-136" type="line"/>
      <point x="377" y="548" type="line"/>
      <point x="318" y="548" type="line"/>
      <point x="291" y="512" type="line"/>
      <point x="178" y="-136" type="line"/>
    </contour>
  </outline>
</glyph>
<glyph name="rupeeIndian" format="2">
  <advance width="393"/>
  <outline>
    <contour>
      <point x="88" y="512" type="line"/>
      <point x="82" y="479" type="line"/>
      <point x="411" y="479" type="line"/>
      <point x="418" y="512" type="line"/>
    </contour>
    <contour>
      <point x="79" y="286" type="line"/>
      <point x="93" y="286" type="line" smooth="yes"/>
      <point x="237" y="286"/>
      <point x="330" y="378"/>
      <point x="337" y="508" type="curve" smooth="yes"/>
      <point x="341" y="600"/>
      <point x="310" y="672"/>
      <point x="207" y="693" type="curve"/>
      <point x="199" y="677" type="line"/>
      <point x="446" y="677" type="line"/>
      <point x="453" y="710" type="line"/>
      <point x="122" y="710" type="line"/>
      <point x="116" y="677" type="line"/>
      <point x="159" y="677" type="line" smooth="yes"/>
      <point x="243" y="677"/>
      <point x="261" y="611"/>
      <point x="256" y="512" type="curve" smooth="yes"/>
      <point x="249" y="388"/>
      <point x="194" y="316"/>
      <point x="90" y="316" type="curve" smooth="yes"/>
      <point x="53" y="316" type="line"/>
      <point x="49" y="295" type="line"/>
      <point x="202" y="0" type="line"/>
      <point x="312" y="0" type="line"/>
      <point x="319" y="31" type="line"/>
      <point x="312" y="31" type="line" smooth="yes"/>
      <point x="289" y="31"/>
      <point x="274" y="43"/>
      <point x="258" y="77" type="curve" smooth="yes"/>
      <point x="140" y="303" type="line"/>
    </contour>
  </outline>
</glyph>
<glyph name="seven.lintab" format="2">
  <advance width="394"/>
  <outline>
    <contour>
      <point x="223" y="634" type="line" smooth="yes"/>
      <point x="165" y="634"/>
      <point x="142" y="623"/>
      <point x="126" y="570" type="curve" smooth="yes"/>
      <point x="101" y="488" type="line"/>
      <point x="77" y="488" type="line"/>
      <point x="116" y="710" type="line"/>
      <point x="450" y="710" type="line"/>
      <point x="440" y="652" type="line"/>
      <point x="324" y="488"/>
      <point x="239" y="327"/>
      <point x="173" y="0" type="curve"/>
      <point x="94" y="0" type="line"/>
      <point x="161" y="305"/>
      <point x="364" y="598"/>
      <point x="419" y="663" type="curve"/>
      <point x="415" y="634" type="line"/>
    </contour>
  </outline>
</glyph>
<glyph name="six.lintab" format="2">
  <advance width="393"/>
  <outline>
    <contour>
      <point x="183" y="-10" type="curve" smooth="yes"/>
      <point x="281" y="-10"/>
      <point x="366" y="96"/>
      <point x="374" y="257" type="curve" smooth="yes"/>
      <point x="381" y="383"/>
      <point x="332" y="453"/>
      <point x="262" y="453" type="curve" smooth="yes"/>
      <point x="198" y="453"/>
      <point x="141" y="388"/>
      <point x="107" y="301" type="curve"/>
      <point x="110" y="276" type="line"/>
      <point x="146" y="364"/>
      <point x="190" y="418"/>
      <point x="234" y="418" type="curve" smooth="yes"/>
      <point x="276" y="418"/>
      <point x="298" y="360"/>
      <point x="293" y="264" type="curve" smooth="yes"/>
      <point x="291" y="236"/>
      <point x="288" y="210"/>
      <point x="283" y="184" type="curve" smooth="yes"/>
      <point x="266" y="85"/>
      <point x="231" y="23"/>
      <point x="185" y="23" type="curve" smooth="yes"/>
      <point x="135" y="23"/>
      <point x="107" y="91"/>
      <point x="114" y="221" type="curve" smooth="yes"/>
      <point x="115" y="257"/>
      <point x="120" y="293"/>
      <point x="128" y="327" type="curve" smooth="yes"/>
      <point x="163" y="535"/>
      <point x="262" y="682"/>
      <point x="403" y="714" type="curve"/>
      <point x="406" y="740" type="line"/>
      <point x="196" y="708"/>
      <point x="48" y="494"/>
      <point x="35" y="244" type="curve" smooth="yes"/>
      <point x="27" y="90"/>
      <point x="84" y="-10"/>
    </contour>
  </outline>
</glyph>
<glyph name="six.midprop" format="2">
  <advance width="404"/>
  <outline>
    <contour>
      <point x="417" y="714" type="line"/>
      <point x="270" y="679"/>
      <point x="165" y="537"/>
      <point x="130" y="327" type="curve" smooth="yes"/>
      <point x="122" y="293"/>
      <point x="118" y="257"/>
      <point x="117" y="221" type="curve" smooth="yes"/>
      <point x="110" y="92"/>
      <point x="140" y="23"/>
      <point x="195" y="23" type="curve" smooth="yes"/>
      <point x="244" y="23"/>
      <point x="282" y="85"/>
      <point x="301" y="184" type="curve" smooth="yes"/>
      <point x="305" y="210"/>
      <point x="308" y="236"/>
      <point x="310" y="264" type="curve" smooth="yes"/>
      <point x="315" y="361"/>
      <point x="296" y="419"/>
      <point x="244" y="419" type="curve" smooth="yes"/>
      <point x="197" y="419"/>
      <point x="151" y="364"/>
      <point x="113" y="276" type="curve"/>
      <point x="111" y="300" type="line"/>
      <point x="144" y="387"/>
      <point x="203" y="453"/>
      <point x="268" y="453" type="curve" smooth="yes"/>
      <point x="344" y="453"/>
      <point x="398" y="381"/>
      <point x="391" y="257" type="curve" smooth="yes"/>
      <point x="383" y="96"/>
      <point x="294" y="-10"/>
      <point x="193" y="-10" type="curve" smooth="yes"/>
      <point x="92" y="-10"/>
      <point x="30" y="90"/>
      <point x="38" y="244" type="curve" smooth="yes"/>
      <point x="51" y="487"/>
      <point x="204" y="706"/>
      <point x="419" y="740" type="curve"/>
    </contour>
  </outline>
</glyph>
<glyph name="three.lintab" format="2">
  <advance width="393"/>
  <outline>
    <contour>
      <point x="172" y="-10" type="curve" smooth="yes"/>
      <point x="276" y="-10"/>
      <point x="354" y="72"/>
      <point x="360" y="200" type="curve" smooth="yes"/>
      <point x="365" y="284"/>
      <point x="327" y="366"/>
      <point x="221" y="381" type="curve"/>
      <point x="231" y="369" type="line"/>
      <point x="234" y="383" type="line"/>
      <point x="221" y="374" type="line"/>
      <point x="318" y="381"/>
      <point x="388" y="455"/>
      <point x="393" y="559" type="curve" smooth="yes"/>
      <point x="398" y="654"/>
      <point x="343" y="720"/>
      <point x="255" y="720" type="curve" smooth="yes"/>
      <point x="190" y="720"/>
      <point x="139" y="687"/>
      <point x="112" y="660" type="curve"/>
      <point x="94" y="549" type="line"/>
      <point x="164" y="549" type="line"/>
      <point x="181" y="677" type="line"/>
      <point x="169" y="672"/>
      <point x="162" y="661"/>
      <point x="158" y="647" type="curve"/>
      <point x="193" y="679"/>
      <point x="219" y="687"/>
      <point x="247" y="687" type="curve" smooth="yes"/>
      <point x="300" y="687"/>
      <point x="320" y="637"/>
      <point x="316" y="560" type="curve" smooth="yes"/>
      <point x="311" y="455"/>
      <point x="270" y="389"/>
      <point x="185" y="389" type="curve" smooth="yes"/>
      <point x="142" y="389" type="line"/>
      <point x="137" y="358" type="line"/>
      <point x="176" y="358" type="line" smooth="yes"/>
      <point x="265" y="358"/>
      <point x="286" y="294"/>
      <point x="282" y="210" type="curve" smooth="yes"/>
      <point x="277" y="106"/>
      <point x="237" y="24"/>
      <point x="167" y="24" type="curve" smooth="yes"/>
      <point x="86" y="24"/>
      <point x="46" y="98"/>
      <point x="33" y="180" type="curve"/>
      <point x="9" y="160" type="line"/>
      <point x="25" y="62"/>
      <point x="80" y="-10"/>
    </contour>
  </outline>
</glyph>
<glyph name="three.oldtab" format="2">
  <advance width="393"/>
  <outline>
    <contour>
      <point x="161" y="-149" type="curve" smooth="yes"/>
      <point x="267" y="-149"/>
      <point x="344" y="-70"/>
      <point x="351" y="54" type="curve" smooth="yes"/>
      <point x="355" y="141"/>
      <point x="317" y="220"/>
      <point x="211" y="234" type="curve"/>
      <point x="218" y="219" type="line"/>
      <point x="223" y="238" type="line"/>
      <point x="211" y="227" type="line"/>
      <point x="308" y="234"/>
      <point x="377" y="308"/>
      <point x="382" y="398" type="curve" smooth="yes"/>
      <point x="387" y="496"/>
      <point x="331" y="558"/>
      <point x="242" y="558" type="curve" smooth="yes"/>
      <point x="178" y="558"/>
      <point x="128" y="525"/>
      <point x="100" y="498" type="curve"/>
      <point x="82" y="387" type="line"/>
      <point x="152" y="387" type="line"/>
      <point x="170" y="515" type="line"/>
      <point x="161" y="506"/>
      <point x="151" y="496"/>
      <point x="146" y="485" type="curve"/>
      <point x="182" y="517"/>
      <point x="209" y="525"/>
      <point x="236" y="525" type="curve" smooth="yes"/>
      <point x="288" y="525"/>
      <point x="309" y="477"/>
      <point x="305" y="401" type="curve" smooth="yes"/>
      <point x="300" y="309"/>
      <point x="261" y="240"/>
      <point x="175" y="240" type="curve" smooth="yes"/>
      <point x="133" y="240" type="line"/>
      <point x="127" y="210" type="line"/>
      <point x="166" y="210" type="line" smooth="yes"/>
      <point x="254" y="210"/>
      <point x="277" y="146"/>
      <point x="272" y="64" type="curve" smooth="yes"/>
      <point x="267" y="-36"/>
      <point x="228" y="-116"/>
      <point x="158" y="-116" type="curve" smooth="yes"/>
      <point x="74" y="-116"/>
      <point x="32" y="-47"/>
      <point x="19" y="37" type="curve"/>
      <point x="-5" y="18" type="line"/>
      <point x="12" y="-83"/>
      <point x="68" y="-149"/>
    </contour>
  </outline>
</glyph>
<glyph name="tilde.uc" format="2">
  <advance width="351"/>
  <anchor x="199" y="694" name="_top"/>
  <outline>
    <contour>
      <point x="284" y="765" type="curve" smooth="yes"/>
      <point x="323" y="765"/>
      <point x="351" y="804"/>
      <point x="368" y="871" type="curve"/>
      <point x="346" y="884" type="line"/>
      <point x="337" y="846"/>
      <point x="324" y="827"/>
      <point x="306" y="827" type="curve" smooth="yes"/>
      <point x="271" y="827"/>
      <point x="248" y="887"/>
      <point x="208" y="887" type="curve" smooth="yes"/>
      <point x="168" y="887"/>
      <point x="145" y="851"/>
      <point x="130" y="780" type="curve"/>
      <point x="150" y="768" type="line"/>
      <point x="157" y="806"/>
      <point x="171" y="826"/>
      <point x="188" y="826" type="curve" smooth="yes"/>
      <point x="217" y="826"/>
      <point x="242" y="765"/>
    </contour>
  </outline>
</glyph>
<glyph name="two.midprop" format="2">
  <advance width="397"/>
  <outline>
    <contour>
      <point x="222" y="76" type="line" smooth="yes"/>
      <point x="283" y="76"/>
      <point x="307" y="89"/>
      <point x="319" y="131" type="curve" smooth="yes"/>
      <point x="343" y="210" type="line"/>
      <point x="367" y="210" type="line"/>
      <point x="330" y="0" type="line"/>
      <point x="-2" y="0" type="line"/>
      <point x="9" y="56" type="line"/>
      <point x="188" y="194"/>
      <point x="297" y="301"/>
      <point x="305" y="459" type="curve" smooth="yes"/>
      <point x="309" y="540"/>
      <point x="284" y="587"/>
      <point x="236" y="587" type="curve" smooth="yes"/>
      <point x="203" y="587"/>
      <point x="178" y="577"/>
      <point x="141" y="543" type="curve"/>
      <point x="148" y="554"/>
      <point x="157" y="563"/>
      <point x="168" y="571" type="curve"/>
      <point x="147" y="447" type="line"/>
      <point x="77" y="447" type="line"/>
      <point x="96" y="551" type="line"/>
      <point x="124" y="578"/>
      <point x="176" y="618"/>
      <point x="242" y="618" type="curve" smooth="yes"/>
      <point x="343" y="618"/>
      <point x="390" y="555"/>
      <point x="385" y="451" type="curve" smooth="yes"/>
      <point x="377" y="297"/>
      <point x="231" y="187"/>
      <point x="49" y="52" type="curve"/>
      <point x="54" y="76" type="line"/>
    </contour>
  </outline>
</glyph>
<glyph name="whitedownpointingtriangle" format="2">
  <advance width="453"/>
  <outline>
    <contour>
      <point x="63" y="464" type="line"/>
      <point x="231" y="91" type="line"/>
      <point x="439" y="464" type="line"/>
    </contour>
    <contour>
      <point x="232" y="175" type="line"/>
      <point x="239" y="175" type="line"/>
      <point x="127" y="430" type="line"/>
      <point x="120" y="414" type="line"/>
      <point x="377" y="414" type="line"/>
      <point x="373" y="430" type="line"/>
    </contour>
  </outline>
</glyph>
<glyph name="zero.oldtab" format="2">
  <advance width="393"/>
  <outline>
    <contour>
      <point x="176" y="-10" type="curve" smooth="yes"/>
      <point x="308" y="-10"/>
      <point x="381" y="162"/>
      <point x="389" y="314" type="curve" smooth="yes"/>
      <point x="397" y="466"/>
      <point x="336" y="558"/>
      <point x="247" y="558" type="curve" smooth="yes"/>
      <point x="114" y="558"/>
      <point x="41" y="387"/>
      <point x="33" y="234" type="curve" smooth="yes"/>
      <point x="25" y="81"/>
      <point x="86" y="-10"/>
    </contour>
    <contour>
      <point x="178" y="21" type="curve" smooth="yes"/>
      <point x="130" y="21"/>
      <point x="104" y="84"/>
      <point x="111" y="216" type="curve" smooth="yes"/>
      <point x="113" y="253"/>
      <point x="118" y="293"/>
      <point x="127" y="330" type="curve" smooth="yes"/>
      <point x="150" y="442"/>
      <point x="191" y="527"/>
      <point x="246" y="527" type="curve" smooth="yes"/>
      <point x="297" y="527"/>
      <point x="318" y="461"/>
      <point x="311" y="332" type="curve" smooth="yes"/>
      <point x="310" y="299"/>
      <point x="306" y="265"/>
      <point x="299" y="231" type="curve" smooth="yes"/>
      <point x="277" y="113"/>
      <point x="235" y="21"/>
    </contour>
  </outline>
</glyph>
